<svg width="104" height="110" viewBox="0 0 104 110" fill="none" xmlns="http://www.w3.org/2000/svg">
<path d="M27.0044 4.00987C27.0044 4.22696 26.9945 4.37497 27.0044 4.52299C27.3797 8.62797 27.755 12.7329 28.1204 16.8478C28.6339 22.6698 29.1376 28.4917 29.6512 34.3038C30.2339 40.8362 30.8264 47.3588 31.3894 53.8913C31.4289 54.3649 31.5968 54.5721 32.0412 54.6905C38.3619 56.4273 44.6628 58.1739 50.9835 59.9007C51.4082 60.0191 51.9217 60.0388 52.3464 59.9204C58.6868 58.1837 65.0174 56.4174 71.3578 54.6708C71.8418 54.5327 72.0096 54.3156 72.0491 53.8222C72.2467 51.3553 72.4837 48.8785 72.701 46.4115C73.0664 42.3263 73.4219 38.241 73.7873 34.1558C74.212 29.3601 74.6466 24.5742 75.0712 19.7785C75.3873 16.2064 75.723 12.6441 76.0391 9.07201C76.1872 7.3945 76.3156 5.71699 76.4539 4H27.0044V4.00987ZM66.9136 18.2589C66.5877 21.8705 66.2618 25.4919 65.9359 29.1035C65.5606 33.2578 65.1853 37.4121 64.81 41.5566C64.7014 42.7506 64.5433 43.9446 64.5137 45.1484C64.494 45.7898 64.2174 45.9576 63.6841 46.1056C59.872 47.1319 56.0697 48.1877 52.2674 49.2337C52.0995 49.283 51.9415 49.3422 51.7736 49.3916C51.7143 49.362 51.6551 49.3422 51.5859 49.3126C47.517 48.2074 43.448 47.0924 39.3791 45.9675C39.2112 45.9181 38.9939 45.6517 38.9742 45.4642C38.6878 42.3855 38.431 39.3067 38.1545 36.1688H44.3665C44.4752 37.4023 44.5937 38.6555 44.6924 39.9185C44.7813 41.0829 44.7714 41.0829 45.8677 41.379C47.833 41.902 49.8082 42.4151 51.7736 42.9282L51.7538 42.8789C53.9068 42.3065 56.0598 41.7441 58.2128 41.1323C58.4103 41.0731 58.6374 40.7573 58.6671 40.5402C58.7955 39.5929 58.8646 38.6357 58.9436 37.6884C59.072 36.1589 59.2004 34.6294 59.3386 33.0309H51.7538L51.7736 32.9914C51.7242 32.9914 51.6649 32.9914 51.6156 32.9914H37.8681C37.6804 30.9488 37.5027 28.9259 37.315 26.8438H51.6254C51.6748 26.8438 51.7341 26.8438 51.7835 26.8438L51.7637 26.8043H59.8917C60.0793 24.6828 60.267 22.6105 60.4546 20.4988H51.7538L51.7736 20.4594C51.7242 20.4594 51.6649 20.4594 51.6156 20.4594C46.7467 20.4692 41.8778 20.4692 37.0088 20.4791C36.9397 20.4791 36.8706 20.4495 36.7422 20.41C36.5644 18.397 36.3768 16.384 36.199 14.3118H51.6156C51.6649 14.3118 51.7242 14.3118 51.7736 14.3118L51.7538 14.2723H67.2395C67.1309 15.6538 67.0222 16.9563 66.9136 18.2589Z" fill="white"/>
<path d="M43.8174 75.808C44.5374 75.808 45.14 75.8987 45.6254 76.08C46.1107 76.2613 46.572 76.528 47.0094 76.88L46.2334 77.784C45.8867 77.4907 45.5187 77.2827 45.1294 77.16C44.7454 77.032 44.3427 76.968 43.9214 76.968C43.3187 76.968 42.7614 77.112 42.2494 77.4C41.7374 77.6827 41.324 78.1547 41.0094 78.816C40.7 79.472 40.5454 80.3627 40.5454 81.488C40.5454 82.5813 40.692 83.4587 40.9854 84.12C41.284 84.7813 41.6867 85.2587 42.1934 85.552C42.7 85.8453 43.2654 85.992 43.8894 85.992C44.508 85.992 45.0147 85.8987 45.4094 85.712C45.8094 85.5253 46.156 85.312 46.4494 85.072L47.1694 85.984C46.8334 86.3093 46.396 86.592 45.8574 86.832C45.3187 87.0667 44.6574 87.184 43.8734 87.184C42.9827 87.184 42.1747 86.9653 41.4494 86.528C40.7294 86.0907 40.1587 85.4507 39.7374 84.608C39.316 83.76 39.1054 82.72 39.1054 81.488C39.1054 80.2507 39.3187 79.2107 39.7454 78.368C40.1774 77.5253 40.7507 76.888 41.4654 76.456C42.1854 76.024 42.9694 75.808 43.8174 75.808ZM55.7871 83.952C55.7871 84.5813 55.6298 85.1413 55.3151 85.632C55.0005 86.1173 54.5445 86.4987 53.9471 86.776C53.3498 87.048 52.6218 87.184 51.7631 87.184C50.9578 87.184 50.2271 87.0613 49.5711 86.816C48.9205 86.5707 48.3631 86.224 47.8991 85.776L48.7231 84.848C49.1071 85.2053 49.5471 85.4907 50.0431 85.704C50.5391 85.912 51.1205 86.016 51.7871 86.016C52.2351 86.016 52.6538 85.944 53.0431 85.8C53.4325 85.6507 53.7471 85.4267 53.9871 85.128C54.2271 84.824 54.3471 84.44 54.3471 83.976C54.3471 83.6187 54.2778 83.3147 54.1391 83.064C54.0005 82.8133 53.7551 82.592 53.4031 82.4C53.0511 82.2027 52.5605 82.0107 51.9311 81.824C51.2058 81.6107 50.5765 81.3707 50.0431 81.104C49.5151 80.832 49.1045 80.4987 48.8111 80.104C48.5231 79.7093 48.3791 79.2213 48.3791 78.64C48.3791 78.0907 48.5311 77.6027 48.8351 77.176C49.1391 76.7493 49.5578 76.416 50.0911 76.176C50.6298 75.9307 51.2485 75.808 51.9471 75.808C52.7098 75.808 53.3711 75.9173 53.9311 76.136C54.4965 76.3493 55.0085 76.6587 55.4671 77.064L54.6511 77.968C54.2565 77.616 53.8325 77.3627 53.3791 77.208C52.9258 77.048 52.4645 76.968 51.9951 76.968C51.5951 76.968 51.2271 77.0293 50.8911 77.152C50.5605 77.2693 50.2938 77.448 50.0911 77.688C49.8938 77.9227 49.7951 78.224 49.7951 78.592C49.7951 78.9067 49.8805 79.1787 50.0511 79.408C50.2218 79.6373 50.5098 79.848 50.9151 80.04C51.3205 80.2267 51.8725 80.424 52.5711 80.632C53.1418 80.7973 53.6698 81.0053 54.1551 81.256C54.6458 81.5013 55.0405 81.8373 55.3391 82.264C55.6378 82.6853 55.7871 83.248 55.7871 83.952ZM64.9009 83.952C64.9009 84.5813 64.7435 85.1413 64.4289 85.632C64.1142 86.1173 63.6582 86.4987 63.0609 86.776C62.4635 87.048 61.7355 87.184 60.8769 87.184C60.0715 87.184 59.3409 87.0613 58.6849 86.816C58.0342 86.5707 57.4769 86.224 57.0129 85.776L57.8369 84.848C58.2209 85.2053 58.6609 85.4907 59.1569 85.704C59.6529 85.912 60.2342 86.016 60.9009 86.016C61.3489 86.016 61.7675 85.944 62.1569 85.8C62.5462 85.6507 62.8609 85.4267 63.1009 85.128C63.3409 84.824 63.4609 84.44 63.4609 83.976C63.4609 83.6187 63.3915 83.3147 63.2529 83.064C63.1142 82.8133 62.8689 82.592 62.5169 82.4C62.1649 82.2027 61.6742 82.0107 61.0449 81.824C60.3195 81.6107 59.6902 81.3707 59.1569 81.104C58.6289 80.832 58.2182 80.4987 57.9249 80.104C57.6369 79.7093 57.4929 79.2213 57.4929 78.64C57.4929 78.0907 57.6449 77.6027 57.9489 77.176C58.2529 76.7493 58.6715 76.416 59.2049 76.176C59.7435 75.9307 60.3622 75.808 61.0609 75.808C61.8235 75.808 62.4849 75.9173 63.0449 76.136C63.6102 76.3493 64.1222 76.6587 64.5809 77.064L63.7649 77.968C63.3702 77.616 62.9462 77.3627 62.4929 77.208C62.0395 77.048 61.5782 76.968 61.1089 76.968C60.7089 76.968 60.3409 77.0293 60.0049 77.152C59.6742 77.2693 59.4075 77.448 59.2049 77.688C59.0075 77.9227 58.9089 78.224 58.9089 78.592C58.9089 78.9067 58.9942 79.1787 59.1649 79.408C59.3355 79.6373 59.6235 79.848 60.0289 80.04C60.4342 80.2267 60.9862 80.424 61.6849 80.632C62.2555 80.7973 62.7835 81.0053 63.2689 81.256C63.7595 81.5013 64.1542 81.8373 64.4529 82.264C64.7515 82.6853 64.9009 83.248 64.9009 83.952Z" fill="white"/>
</svg>
