<svg width="104" height="110" viewBox="0 0 104 110" fill="none" xmlns="http://www.w3.org/2000/svg">
<g clip-path="url(#clip0_3001_2493)">
<path d="M70.507 27.5335L52.5744 37.7481C52.2517 37.9379 51.8529 37.9379 51.5207 37.7481L33.5881 27.5335C32.8857 27.1347 32.8857 26.119 33.5881 25.7108L51.5207 15.4962C51.8434 15.3063 52.2422 15.3063 52.5744 15.4962L70.507 25.7108C71.2094 26.1095 71.2094 27.1252 70.507 27.5335Z" fill="#3DCFB6"/>
<path d="M67.4027 30.97V39.3904C67.4027 39.7701 67.2033 40.1119 66.8711 40.3017L52.5744 48.4468C52.2516 48.6367 51.8529 48.6367 51.5207 48.4468L37.224 40.3017C36.8917 40.1119 36.6924 39.7701 36.6924 39.3904V30.97L44.6191 35.4792L51.5207 39.4189C51.8434 39.6087 52.2421 39.6087 52.5744 39.4189L59.4759 35.4792L67.4027 30.97Z" fill="#3DCFB6"/>
<path d="M75.7566 17.072L76.2502 16.7303C76.8483 16.3126 76.7723 15.4108 76.1173 15.0975L72.1871 13.2273C71.5226 12.9141 70.7727 13.4362 70.8296 14.1671L71.2094 18.5055C71.2758 19.227 72.1017 19.6162 72.6998 19.1985L73.4023 18.7144C79.6488 28.7771 77.9685 42.1814 69.2348 50.3455C60.6435 58.3767 47.4006 59.3545 37.7461 52.6713C37.1005 52.2251 36.2082 52.3865 35.762 53.032C35.3158 53.6776 35.4772 54.5699 36.1227 55.0161C40.8978 58.3197 46.4513 59.943 51.9953 59.943C58.9347 59.943 65.8552 57.3989 71.1809 52.4245C80.9303 43.3016 82.81 28.2929 75.7566 17.072Z" fill="#3DCFB6"/>
<path d="M67.9723 8.92698C57.2261 1.48436 42.4833 2.57607 32.9142 11.5186C22.9179 20.8693 21.1237 35.8115 28.5758 47.2223L27.8828 47.6969C27.2847 48.1146 27.3607 49.0165 28.0157 49.3298L31.9459 51.1999C32.6104 51.5132 33.3604 50.9911 33.3034 50.2601L32.9237 45.9217C32.8572 45.2002 32.0313 44.811 31.4332 45.2287L30.9206 45.5895C24.2944 35.3464 25.8988 21.9705 34.8603 13.5976C43.4516 5.56641 56.6945 4.57912 66.349 11.2718C66.9945 11.718 67.8869 11.5566 68.3331 10.911C68.7792 10.2655 68.6179 9.37315 67.9723 8.92698Z" fill="#3DCFB6"/>
</g>
<path d="M28.2348 87.184C27.3654 87.184 26.6081 86.9733 25.9628 86.552C25.3228 86.1307 24.8268 85.4987 24.4748 84.656C24.1228 83.8133 23.9468 82.7573 23.9468 81.488C23.9468 80.5387 24.0721 79.7093 24.3228 79C24.5788 78.2907 24.9228 77.6987 25.3548 77.224C25.7921 76.7493 26.2854 76.3947 26.8348 76.16C27.3894 75.9253 27.9628 75.808 28.5548 75.808C29.2748 75.808 29.8721 75.912 30.3468 76.12C30.8214 76.3227 31.2748 76.6213 31.7068 77.016L30.8668 77.888C30.5308 77.5733 30.1761 77.3413 29.8028 77.192C29.4348 77.0427 29.0214 76.968 28.5628 76.968C28.1628 76.968 27.7761 77.0453 27.4028 77.2C27.0294 77.3547 26.6934 77.608 26.3948 77.96C26.1014 78.3067 25.8668 78.768 25.6908 79.344C25.5201 79.92 25.4348 80.6347 25.4348 81.488C25.4348 82.5493 25.5441 83.4133 25.7628 84.08C25.9868 84.7467 26.3148 85.2373 26.7468 85.552C27.1841 85.8613 27.7228 86.016 28.3628 86.016C28.7468 86.016 29.1094 85.9707 29.4508 85.88C29.7974 85.7893 30.1334 85.6587 30.4588 85.488V82.128H28.2908L28.1228 80.976H31.8348V86.224C31.3388 86.4907 30.8108 86.7173 30.2508 86.904C29.6908 87.0907 29.0188 87.184 28.2348 87.184ZM34.5005 87V85.968H35.8125V79.608H34.5005V78.576H36.8365L37.0845 80.568C37.4098 79.8747 37.8045 79.3387 38.2685 78.96C38.7325 78.5813 39.3458 78.392 40.1085 78.392C40.3432 78.392 40.5512 78.4107 40.7325 78.448C40.9192 78.48 41.1085 78.5227 41.3005 78.576L40.9085 79.776C40.7325 79.728 40.5725 79.6933 40.4285 79.672C40.2845 79.6453 40.1192 79.632 39.9325 79.632C39.2872 79.632 38.7325 79.8613 38.2685 80.32C37.8045 80.7787 37.4338 81.472 37.1565 82.4V85.968H38.8685V87H34.5005ZM40.0045 81.424V79.592L40.1405 78.576H41.3005L41.1085 81.424H40.0045ZM47.2223 78.4C48.0169 78.4 48.6809 78.5813 49.2143 78.944C49.7529 79.3013 50.1556 79.808 50.4223 80.464C50.6943 81.12 50.8303 81.8933 50.8303 82.784C50.8303 83.6427 50.6916 84.4027 50.4143 85.064C50.1369 85.7253 49.7289 86.2453 49.1903 86.624C48.6569 86.9973 47.9956 87.184 47.2063 87.184C46.4169 87.184 45.7529 87.0027 45.2143 86.64C44.6756 86.2773 44.2676 85.768 43.9903 85.112C43.7183 84.4507 43.5822 83.68 43.5822 82.8C43.5822 81.9307 43.7209 81.1653 43.9983 80.504C44.2756 79.8427 44.6836 79.328 45.2223 78.96C45.7663 78.5867 46.4329 78.4 47.2223 78.4ZM47.2223 79.496C46.4969 79.496 45.9476 79.7653 45.5743 80.304C45.2063 80.8373 45.0223 81.6693 45.0223 82.8C45.0223 83.9093 45.2036 84.7333 45.5663 85.272C45.9343 85.8107 46.4809 86.08 47.2063 86.08C47.9316 86.08 48.4756 85.8107 48.8383 85.272C49.2063 84.7333 49.3903 83.904 49.3903 82.784C49.3903 81.664 49.2089 80.8373 48.8463 80.304C48.4836 79.7653 47.9423 79.496 47.2223 79.496ZM59.848 87H57.944L56.856 80.816L55.672 87H53.816L52.28 78.576H53.656L54.728 86.168L56.072 79.648H57.664L58.936 86.168L60.008 78.576H61.32L59.848 87ZM69.8898 86.576C69.6018 86.768 69.2524 86.9173 68.8418 87.024C68.4311 87.1307 68.0284 87.184 67.6338 87.184C66.7271 87.184 66.0284 86.9467 65.5378 86.472C65.0471 85.9973 64.8018 85.3867 64.8018 84.64V79.616H62.8658V78.576H64.8018V76.664L66.1458 76.504V78.576H69.0578L68.8978 79.616H66.1458V84.624C66.1458 85.0933 66.2684 85.4507 66.5138 85.696C66.7644 85.9413 67.1778 86.064 67.7538 86.064C68.0684 86.064 68.3591 86.0267 68.6258 85.952C68.8924 85.8773 69.1404 85.7813 69.3698 85.664L69.8898 86.576ZM74.1395 75.056V79.728C74.4702 79.2853 74.8755 78.9547 75.3555 78.736C75.8408 78.512 76.3315 78.4 76.8275 78.4C77.6488 78.4 78.2488 78.6187 78.6275 79.056C79.0062 79.4933 79.1955 80.1013 79.1955 80.88V87H77.8515V80.912C77.8515 80.4053 77.7342 80.0373 77.4995 79.808C77.2648 79.5733 76.8968 79.456 76.3955 79.456C76.0755 79.456 75.7715 79.528 75.4835 79.672C75.1955 79.816 74.9368 79.9947 74.7075 80.208C74.4782 80.4213 74.2888 80.64 74.1395 80.864V87H72.7955V75.2L74.1395 75.056ZM25.5819 97.4C25.8539 97.4 26.1125 97.4587 26.3579 97.576C26.6085 97.6933 26.8139 97.92 26.9739 98.256C27.1339 98.592 27.2139 99.0827 27.2139 99.728V106H25.9659V99.944C25.9659 99.416 25.9339 99.0347 25.8699 98.8C25.8059 98.5653 25.6219 98.448 25.3179 98.448C25.0672 98.448 24.8165 98.528 24.5659 98.688C24.3205 98.8427 24.0805 99.0987 23.8459 99.456V106H22.5899V99.944C22.5899 99.416 22.5579 99.0347 22.4939 98.8C22.4299 98.5653 22.2459 98.448 21.9419 98.448C21.6805 98.448 21.4272 98.528 21.1819 98.688C20.9419 98.8427 20.7045 99.0987 20.4699 99.456V106H19.2299V97.576H20.2859L20.3659 98.552C20.5952 98.2267 20.8512 97.9547 21.1339 97.736C21.4219 97.512 21.7765 97.4 22.1979 97.4C22.5179 97.4 22.8192 97.4773 23.1019 97.632C23.3845 97.7813 23.5925 98.0747 23.7259 98.512C23.9552 98.1813 24.2139 97.9147 24.5019 97.712C24.7899 97.504 25.1499 97.4 25.5819 97.4ZM33.8876 97.576V104.936H36.2636V106H29.9436V104.936H32.5436V98.64H30.0236V97.576H33.8876ZM32.8156 93.632C33.1143 93.632 33.3516 93.7227 33.5276 93.904C33.709 94.0853 33.7996 94.3067 33.7996 94.568C33.7996 94.84 33.709 95.0693 33.5276 95.256C33.3516 95.4373 33.1143 95.528 32.8156 95.528C32.533 95.528 32.301 95.4373 32.1196 95.256C31.9383 95.0693 31.8476 94.84 31.8476 94.568C31.8476 94.3067 31.9383 94.0853 32.1196 93.904C32.301 93.7227 32.533 93.632 32.8156 93.632ZM39.2174 106V97.576H40.3614L40.4654 98.744C40.8067 98.312 41.2334 97.9813 41.7454 97.752C42.2627 97.5173 42.764 97.4 43.2494 97.4C44.076 97.4 44.676 97.6187 45.0494 98.056C45.428 98.4933 45.6174 99.1013 45.6174 99.88V106H44.2734V100.872C44.2734 100.296 44.2414 99.832 44.1774 99.48C44.1134 99.1227 43.98 98.864 43.7774 98.704C43.5747 98.5387 43.26 98.456 42.8334 98.456C42.5027 98.456 42.1907 98.528 41.8974 98.672C41.6094 98.816 41.3507 98.9973 41.1214 99.216C40.8974 99.4293 40.7107 99.6453 40.5614 99.864V106H39.2174ZM53.8511 94.016L55.1951 94.184V106H54.0191L53.8911 104.888C53.5765 105.336 53.2138 105.664 52.8031 105.872C52.3978 106.08 51.9631 106.184 51.4991 106.184C50.7685 106.184 50.1658 106 49.6911 105.632C49.2165 105.264 48.8645 104.752 48.6351 104.096C48.4058 103.435 48.2911 102.669 48.2911 101.8C48.2911 100.957 48.4218 100.205 48.6831 99.544C48.9445 98.8773 49.3205 98.3547 49.8111 97.976C50.3071 97.592 50.9018 97.4 51.5951 97.4C52.0805 97.4 52.5071 97.4853 52.8751 97.656C53.2431 97.8213 53.5685 98.0667 53.8511 98.392V94.016ZM51.9471 98.48C51.2431 98.48 50.7018 98.7547 50.3231 99.304C49.9445 99.8533 49.7551 100.685 49.7551 101.8C49.7551 102.525 49.8325 103.133 49.9871 103.624C50.1418 104.115 50.3685 104.483 50.6671 104.728C50.9711 104.973 51.3418 105.096 51.7791 105.096C52.2591 105.096 52.6671 104.96 53.0031 104.688C53.3445 104.416 53.6271 104.109 53.8511 103.768V99.56C53.6218 99.2187 53.3445 98.9547 53.0191 98.768C52.6938 98.576 52.3365 98.48 51.9471 98.48ZM61.2689 105.072C61.9142 105.072 62.4235 104.952 62.7969 104.712C63.1755 104.467 63.3649 104.141 63.3649 103.736C63.3649 103.48 63.3169 103.259 63.2209 103.072C63.1302 102.885 62.9409 102.717 62.6529 102.568C62.3649 102.419 61.9222 102.269 61.3249 102.12C60.7435 101.976 60.2369 101.811 59.8049 101.624C59.3782 101.432 59.0449 101.184 58.8049 100.88C58.5702 100.576 58.4529 100.181 58.4529 99.696C58.4529 99.2213 58.5862 98.8133 58.8529 98.472C59.1249 98.1253 59.5009 97.8613 59.9809 97.68C60.4609 97.4933 61.0182 97.4 61.6529 97.4C62.3302 97.4 62.9195 97.4907 63.4209 97.672C63.9275 97.848 64.3569 98.0667 64.7089 98.328L64.1169 99.24C63.7969 99.0213 63.4449 98.8427 63.0609 98.704C62.6769 98.56 62.2129 98.488 61.6689 98.488C61.0075 98.488 60.5382 98.592 60.2609 98.8C59.9835 99.0027 59.8449 99.2667 59.8449 99.592C59.8449 99.8373 59.9115 100.043 60.0449 100.208C60.1835 100.368 60.4155 100.515 60.7409 100.648C61.0662 100.776 61.5142 100.917 62.0849 101.072C62.6342 101.216 63.1115 101.389 63.5169 101.592C63.9275 101.795 64.2475 102.061 64.4769 102.392C64.7062 102.723 64.8209 103.149 64.8209 103.672C64.8209 104.269 64.6502 104.755 64.3089 105.128C63.9675 105.496 63.5249 105.765 62.9809 105.936C62.4422 106.101 61.8715 106.184 61.2689 106.184C60.5062 106.184 59.8555 106.075 59.3169 105.856C58.7835 105.632 58.3355 105.363 57.9729 105.048L58.7409 104.16C59.0715 104.432 59.4502 104.653 59.8769 104.824C60.3089 104.989 60.7729 105.072 61.2689 105.072ZM69.0546 102.264C69.0813 102.915 69.2066 103.448 69.4306 103.864C69.6546 104.275 69.9506 104.579 70.3186 104.776C70.6866 104.968 71.0866 105.064 71.5186 105.064C71.9506 105.064 72.34 105 72.6866 104.872C73.0386 104.744 73.3986 104.555 73.7666 104.304L74.3986 105.192C74.004 105.501 73.5533 105.744 73.0466 105.92C72.5453 106.096 72.0306 106.184 71.5026 106.184C70.6866 106.184 69.9906 106 69.4146 105.632C68.8386 105.264 68.3986 104.752 68.0946 104.096C67.796 103.435 67.6466 102.669 67.6466 101.8C67.6466 100.947 67.7986 100.189 68.1026 99.528C68.4066 98.8667 68.8333 98.3467 69.3826 97.968C69.932 97.5893 70.58 97.4 71.3266 97.4C72.036 97.4 72.6466 97.568 73.1586 97.904C73.6706 98.2347 74.0626 98.7093 74.3346 99.328C74.612 99.9413 74.7506 100.675 74.7506 101.528C74.7506 101.672 74.748 101.808 74.7426 101.936C74.7373 102.059 74.7293 102.168 74.7186 102.264H69.0546ZM71.3426 98.504C70.7186 98.504 70.196 98.7253 69.7746 99.168C69.3586 99.6107 69.1213 100.296 69.0626 101.224H73.4546C73.4386 100.323 73.2413 99.6453 72.8626 99.192C72.484 98.7333 71.9773 98.504 71.3426 98.504ZM84.2804 105.576C83.9924 105.768 83.643 105.917 83.2324 106.024C82.8217 106.131 82.419 106.184 82.0244 106.184C81.1177 106.184 80.419 105.947 79.9284 105.472C79.4377 104.997 79.1924 104.387 79.1924 103.64V98.616H77.2564V97.576H79.1924V95.664L80.5364 95.504V97.576H83.4484L83.2884 98.616H80.5364V103.624C80.5364 104.093 80.659 104.451 80.9044 104.696C81.155 104.941 81.5684 105.064 82.1444 105.064C82.459 105.064 82.7497 105.027 83.0164 104.952C83.283 104.877 83.531 104.781 83.7604 104.664L84.2804 105.576Z" fill="white"/>
<defs>
<clipPath id="clip0_3001_2493">
<rect width="56" height="55.943" fill="white" transform="translate(24 4)"/>
</clipPath>
</defs>
</svg>
