<svg width="104" height="110" viewBox="0 0 104 110" fill="none" xmlns="http://www.w3.org/2000/svg">
<path d="M52.04 4L78.08 13.296L74.1096 47.764L52.04 60L29.9704 47.764L26 13.296L52.04 4ZM52.04 10.188L35.7608 46.728H41.8312L45.1044 38.552H58.9196L62.1956 46.728H68.2632L52.04 10.188ZM56.7944 33.512H47.2856L52.04 22.06L56.7944 33.512Z" fill="white"/>
<path d="M25.3579 84.192H20.9979L20.1179 87H18.7499L22.3339 75.984H24.1099L27.6939 87H26.2379L25.3579 84.192ZM21.3579 83.04H24.9979L23.1899 77.152L21.3579 83.04ZM29.6236 87V78.576H30.7676L30.8716 79.744C31.213 79.312 31.6396 78.9813 32.1516 78.752C32.669 78.5173 33.1703 78.4 33.6556 78.4C34.4823 78.4 35.0823 78.6187 35.4556 79.056C35.8343 79.4933 36.0236 80.1013 36.0236 80.88V87H34.6796V81.872C34.6796 81.296 34.6476 80.832 34.5836 80.48C34.5196 80.1227 34.3863 79.864 34.1836 79.704C33.981 79.5387 33.6663 79.456 33.2396 79.456C32.909 79.456 32.597 79.528 32.3036 79.672C32.0156 79.816 31.757 79.9973 31.5276 80.216C31.3036 80.4293 31.117 80.6453 30.9676 80.864V87H29.6236ZM46.0654 77.68L46.4814 78.944C46.124 79.056 45.7427 79.1253 45.3374 79.152C44.932 79.1787 44.492 79.192 44.0174 79.192C44.5027 79.416 44.868 79.7067 45.1134 80.064C45.3587 80.416 45.4814 80.832 45.4814 81.312C45.4814 81.8667 45.356 82.36 45.1054 82.792C44.8547 83.224 44.492 83.5627 44.0174 83.808C43.548 84.0533 42.98 84.176 42.3134 84.176C42.0307 84.176 41.7934 84.1627 41.6014 84.136C41.4147 84.1093 41.2334 84.0693 41.0574 84.016C40.9294 84.1013 40.8227 84.2187 40.7374 84.368C40.6574 84.5173 40.6174 84.672 40.6174 84.832C40.6174 85.0347 40.6974 85.2027 40.8574 85.336C41.0174 85.4693 41.3134 85.536 41.7454 85.536H43.2654C43.8307 85.536 44.3374 85.6373 44.7854 85.84C45.2387 86.0427 45.5934 86.3147 45.8494 86.656C46.1107 86.9973 46.2414 87.3867 46.2414 87.824C46.2414 88.6507 45.8894 89.2853 45.1854 89.728C44.4867 90.1707 43.4974 90.392 42.2174 90.392C41.3214 90.392 40.6147 90.2987 40.0974 90.112C39.58 89.9307 39.2094 89.6507 38.9854 89.272C38.7667 88.8987 38.6574 88.4267 38.6574 87.856H39.8734C39.8734 88.1813 39.9374 88.4507 40.0654 88.664C40.1934 88.8773 40.4254 89.0347 40.7614 89.136C41.0974 89.2427 41.58 89.296 42.2094 89.296C42.828 89.296 43.332 89.2427 43.7214 89.136C44.116 89.0347 44.4067 88.88 44.5934 88.672C44.7854 88.4693 44.8814 88.216 44.8814 87.912C44.8814 87.512 44.7 87.2107 44.3374 87.008C43.9747 86.8053 43.5214 86.704 42.9774 86.704H41.4734C40.748 86.704 40.212 86.544 39.8654 86.224C39.524 85.904 39.3534 85.536 39.3534 85.12C39.3534 84.848 39.4307 84.584 39.5854 84.328C39.7454 84.072 39.9774 83.8453 40.2814 83.648C39.796 83.392 39.4387 83.0747 39.2094 82.696C38.98 82.3173 38.8654 81.8587 38.8654 81.32C38.8654 80.7493 39.0067 80.2453 39.2894 79.808C39.572 79.3653 39.9667 79.0187 40.4734 78.768C40.98 78.5173 41.564 78.392 42.2254 78.392C42.9347 78.3867 43.5107 78.3573 43.9534 78.304C44.396 78.2453 44.7747 78.1627 45.0894 78.056C45.4094 77.9493 45.7347 77.824 46.0654 77.68ZM42.2254 79.376C41.548 79.376 41.0467 79.56 40.7214 79.928C40.4014 80.2907 40.2414 80.7547 40.2414 81.32C40.2414 81.8907 40.4067 82.36 40.7374 82.728C41.068 83.096 41.5747 83.28 42.2574 83.28C42.8547 83.28 43.308 83.1067 43.6174 82.76C43.932 82.4133 44.0894 81.9307 44.0894 81.312C44.0894 80.6773 43.932 80.1973 43.6174 79.872C43.308 79.5413 42.844 79.376 42.2254 79.376ZM50.1551 78.576V84.544C50.1551 85.0987 50.2698 85.4987 50.4991 85.744C50.7285 85.9893 51.0858 86.112 51.5711 86.112C52.0351 86.112 52.4725 85.9813 52.8831 85.72C53.2991 85.4533 53.6218 85.1387 53.8511 84.776V78.576H55.1951V87H54.0511L53.9391 85.864C53.6085 86.2907 53.2005 86.6187 52.7151 86.848C52.2298 87.072 51.7391 87.184 51.2431 87.184C50.4271 87.184 49.8165 86.968 49.4111 86.536C49.0111 86.0987 48.8111 85.488 48.8111 84.704V78.576H50.1551ZM61.6849 75.184V84.92C61.6849 85.336 61.8129 85.632 62.0689 85.808C62.3302 85.9787 62.6662 86.064 63.0769 86.064C63.3329 86.064 63.5755 86.0373 63.8049 85.984C64.0342 85.9307 64.2635 85.8587 64.4929 85.768L64.8529 86.752C64.6235 86.864 64.3382 86.9627 63.9969 87.048C63.6609 87.1387 63.2795 87.184 62.8529 87.184C62.1062 87.184 61.5009 86.9787 61.0369 86.568C60.5729 86.152 60.3409 85.5787 60.3409 84.848V76.248H57.7569V75.184H61.6849ZM74.0306 85.16C74.0306 85.496 74.0866 85.7413 74.1986 85.896C74.3106 86.0507 74.484 86.1653 74.7186 86.24L74.3906 87.184C74.028 87.136 73.7106 87.0213 73.4386 86.84C73.1666 86.6533 72.9693 86.3733 72.8466 86C72.5426 86.3893 72.164 86.6853 71.7106 86.888C71.2573 87.0853 70.756 87.184 70.2066 87.184C69.364 87.184 68.7 86.9467 68.2146 86.472C67.7293 85.9973 67.4866 85.368 67.4866 84.584C67.4866 83.7147 67.8253 83.048 68.5026 82.584C69.18 82.12 70.1586 81.888 71.4386 81.888H72.6786V81.184C72.6786 80.576 72.5 80.1467 72.1426 79.896C71.7906 79.64 71.3 79.512 70.6706 79.512C70.3933 79.512 70.068 79.5467 69.6946 79.616C69.3213 79.68 68.916 79.7893 68.4786 79.944L68.1266 78.928C68.644 78.736 69.1293 78.6 69.5826 78.52C70.036 78.44 70.468 78.4 70.8786 78.4C71.9293 78.4 72.716 78.6453 73.2386 79.136C73.7666 79.6213 74.0306 80.2827 74.0306 81.12V85.16ZM70.5506 86.16C70.9666 86.16 71.364 86.056 71.7426 85.848C72.1213 85.6347 72.4333 85.3413 72.6786 84.968V82.8H71.4626C70.5346 82.8 69.8786 82.96 69.4946 83.28C69.116 83.6 68.9266 84.0293 68.9266 84.568C68.9266 85.0907 69.06 85.488 69.3266 85.76C69.5986 86.0267 70.0066 86.16 70.5506 86.16ZM77.6724 87V85.968H78.9844V79.608H77.6724V78.576H80.0084L80.2564 80.568C80.5817 79.8747 80.9764 79.3387 81.4404 78.96C81.9044 78.5813 82.5177 78.392 83.2804 78.392C83.515 78.392 83.723 78.4107 83.9044 78.448C84.091 78.48 84.2804 78.5227 84.4724 78.576L84.0804 79.776C83.9044 79.728 83.7444 79.6933 83.6004 79.672C83.4564 79.6453 83.291 79.632 83.1044 79.632C82.459 79.632 81.9044 79.8613 81.4404 80.32C80.9764 80.7787 80.6057 81.472 80.3284 82.4V85.968H82.0404V87H77.6724ZM83.1764 81.424V79.592L83.3124 78.576H84.4724L84.2804 81.424H83.1764Z" fill="white"/>
</svg>
