<?xml version="1.0" encoding="UTF-8"?>
<svg version="1.1" xmlns="http://www.w3.org/2000/svg" width="512" height="512">
<path d="M0 0 C0.97055328 0.00215515 1.94110657 0.0043103 2.94107056 0.00653076 C17.26361716 0.05754633 31.30505979 0.38406747 45.375 3.3125 C46.3846582 3.52181152 47.39431641 3.73112305 48.43457031 3.94677734 C113.68966736 17.88772868 170.73958427 55.63911007 207.53515625 111.59765625 C209.53543402 114.80684941 211.46439836 118.0491924 213.375 121.3125 C214.08835732 122.48709114 214.80190487 123.66156677 215.515625 124.8359375 C237.28857561 161.33186945 246.85613716 203.79218755 246.6875 245.9375 C246.68534485 246.90805328 246.6831897 247.87860657 246.68096924 248.87857056 C246.6299334 263.20680898 246.28258438 277.23435782 243.375 291.3125 C243.17632324 292.29557129 242.97764648 293.27864258 242.77294922 294.29150391 C239.56197522 309.73063656 235.01803374 324.59539933 229.375 339.3125 C229.10107422 340.03163574 228.82714844 340.75077148 228.54492188 341.49169922 C205.72245882 400.19233259 156.17639909 446.59888989 99.75048828 472.51806641 C83.50446204 479.64496585 66.38103401 485.084419 49 488.625 C48.27748047 488.77227539 47.55496094 488.91955078 46.81054688 489.07128906 C31.47941368 491.96536239 16.31727809 492.68728976 0.75 492.625 C-0.22055328 492.62284485 -1.19110657 492.6206897 -2.19107056 492.61846924 C-16.51930898 492.5674334 -30.54685782 492.22008438 -44.625 489.3125 C-46.09960693 489.01448486 -46.09960693 489.01448486 -47.60400391 488.71044922 C-63.04313656 485.49947522 -77.90789933 480.95553374 -92.625 475.3125 C-93.34413574 475.03857422 -94.06327148 474.76464844 -94.80419922 474.48242188 C-153.36369713 451.71483146 -200.19173128 402.09108146 -225.84667969 345.62353516 C-228.31322524 339.92843063 -230.53439891 334.15518617 -232.625 328.3125 C-232.90037598 327.54550781 -233.17575195 326.77851563 -233.45947266 325.98828125 C-236.7860053 316.54004627 -239.29124 306.98264764 -241.375 297.1875 C-241.57375732 296.25905273 -241.77251465 295.33060547 -241.97729492 294.37402344 C-245.18740382 278.48446598 -246.00219991 262.85711349 -245.9375 246.6875 C-245.93534485 245.71694672 -245.9331897 244.74639343 -245.93096924 243.74642944 C-245.87995367 229.42388284 -245.55343253 215.38244021 -242.625 201.3125 C-242.41568848 200.3028418 -242.20637695 199.29318359 -241.99072266 198.25292969 C-233.11524425 156.70840446 -215.50524943 118.60840588 -187.625 86.3125 C-186.95597656 85.53261719 -186.28695312 84.75273438 -185.59765625 83.94921875 C-175.54775198 72.51441147 -164.76497902 61.52499089 -152.625 52.3125 C-152.05813477 51.8798584 -151.49126953 51.4472168 -150.90722656 51.00146484 C-142.44750442 44.57234586 -133.80245061 38.68571464 -124.625 33.3125 C-123.45040886 32.59914268 -122.27593323 31.88559513 -121.1015625 31.171875 C-99.42668236 18.24489569 -74.92720371 9.73395827 -50.3125 4.5 C-49.39533203 4.30494873 -48.47816406 4.10989746 -47.53320312 3.90893555 C-31.6959271 0.74622371 -16.11036364 -0.06446283 0 0 Z " fill="#6E83B7" transform="translate(255.625,9.6875)"/>
<path d="M0 0 C1.81443698 -0.00935994 1.81443698 -0.00935994 3.66552925 -0.01890898 C7.01557307 -0.03209245 10.36471838 -0.02736332 13.71470737 -0.0149641 C17.33032365 -0.00590987 20.94586169 -0.01988516 24.5614624 -0.03088379 C31.64137789 -0.04866968 38.72112376 -0.04482877 45.80104589 -0.03323323 C51.5550612 -0.02419943 57.30902896 -0.02297466 63.06304932 -0.02732849 C64.29149179 -0.02824789 64.29149179 -0.02824789 65.54475129 -0.02918586 C67.20845971 -0.03046476 68.87216812 -0.03176162 70.53587651 -0.03307623 C86.13624525 -0.04448223 101.73651997 -0.03136802 117.33687329 -0.00987476 C130.7225134 0.00799625 144.10801474 0.00489215 157.49365234 -0.0135498 C173.0382179 -0.03495618 188.58270105 -0.04338359 204.12727928 -0.03110075 C205.78486505 -0.02982655 207.44245083 -0.02856907 209.10003662 -0.02732849 C209.91559906 -0.02671139 210.7311615 -0.02609429 211.57143795 -0.02545848 C217.3184991 -0.02200488 223.06550798 -0.02783414 228.81256104 -0.0372467 C235.81639801 -0.04846549 242.82005566 -0.04542928 249.82387209 -0.02412373 C253.39732768 -0.01361156 256.97048431 -0.00949402 260.54393768 -0.02272034 C264.41715615 -0.03683935 268.28988512 -0.01998027 272.16308594 0 C273.29323687 -0.00892289 274.42338779 -0.01784577 275.58778572 -0.02703905 C281.74399765 0.03474624 285.40904228 0.37027766 290.08154297 4.50793457 C293.51071369 8.2078293 294.38124045 11.08716947 294.58154297 16.00793457 C294.36690297 20.95806946 293.58928836 23.82480191 290.08154297 27.50793457 C284.17469715 32.31919081 279.29021355 33.22092822 271.81005859 33.07556152 C270.81402618 33.07629166 269.81799377 33.07702179 268.79177856 33.07777405 C265.5232154 33.07431069 262.25610496 33.03550752 258.98779297 32.99621582 C256.71236957 32.98688328 254.43693608 32.97976925 252.16149902 32.97477722 C246.19034795 32.95574242 240.21981088 32.9066711 234.24890137 32.85125732 C228.14892888 32.79998937 222.04885659 32.77724702 215.94873047 32.7520752 C203.99273244 32.69854964 192.03718889 32.61327887 180.08154297 32.50793457 C180.08430835 33.77022196 180.08707373 35.03250935 180.0899229 36.33304787 C180.15489147 66.29481394 180.20436201 96.25656184 180.23473896 126.21838108 C180.23849109 129.90588211 180.24237406 133.59338299 180.24633789 137.28088379 C180.24712482 138.01500116 180.24791175 138.74911853 180.24872253 139.50548188 C180.2617777 151.39339375 180.28543216 163.28126211 180.31300136 175.16914816 C180.34105246 187.36652827 180.3577186 199.56388559 180.36380845 211.76129663 C180.36792551 219.28822277 180.38093056 226.81502593 180.40529237 234.34191422 C180.42301959 240.1128063 180.42490933 245.88361951 180.42086601 251.65453339 C180.42169252 254.02248009 180.42767546 256.39043137 180.43915939 258.75835037 C180.45405732 261.98817121 180.45050609 265.21746339 180.44230652 268.44729614 C180.45104504 269.38699237 180.45978357 270.32668861 180.4687869 271.29486048 C180.42726198 277.33513014 179.61613697 281.76020426 175.36279297 286.37121582 C174.77498047 286.84945801 174.18716797 287.3277002 173.58154297 287.82043457 C172.99373047 288.31156738 172.40591797 288.8027002 171.80029297 289.30871582 C166.97856201 292.67296901 160.68533735 292.03561282 155.08154297 291.50793457 C150.17441282 289.18820032 147.27043816 285.79016526 144.08154297 281.50793457 C143.08443575 278.51661291 142.95813109 276.56228503 142.96128845 273.43965149 C142.95922646 271.86843285 142.95922646 271.86843285 142.9571228 270.26547241 C142.96071808 269.11676666 142.96431335 267.96806091 142.96801758 266.7845459 C142.96787155 265.57466507 142.96772552 264.36478424 142.96757507 263.11824036 C142.96815278 259.80031766 142.97317157 256.48245701 142.98014903 253.1645453 C142.98639601 249.6971977 142.98698743 246.2298493 142.98817444 242.76249695 C142.99128378 236.19646853 142.99949183 229.63045675 143.00952393 223.06443566 C143.02069737 215.58929901 143.02619862 208.11416157 143.03121936 200.63901865 C143.04167476 185.26198073 143.05946774 169.88496045 143.08154297 154.50793457 C138.46154297 154.50793457 133.84154297 154.50793457 129.08154297 154.50793457 C129.09153572 156.81817123 129.09153572 156.81817123 129.10173035 159.17507935 C129.16252201 173.6833164 129.20768655 188.19150668 129.23697948 202.69983864 C129.25244027 210.15887191 129.27351464 217.61781003 129.30786133 225.07678223 C129.33778792 231.57896119 129.35712371 238.08107123 129.36380845 244.58331716 C129.36771522 248.02538485 129.37688 251.46725537 129.39873314 254.9092598 C129.4229459 258.75420035 129.42351086 262.59894902 129.42211914 266.44396973 C129.43290497 267.58188965 129.4436908 268.71980957 129.45480347 269.89221191 C129.42893687 276.4880985 129.02811009 281.31358794 124.36279297 286.37121582 C123.77498047 286.84945801 123.18716797 287.3277002 122.58154297 287.82043457 C121.99373047 288.31156738 121.40591797 288.8027002 120.80029297 289.30871582 C115.97856201 292.67296901 109.68533735 292.03561282 104.08154297 291.50793457 C99.17441282 289.18820032 96.27043816 285.79016526 93.08154297 281.50793457 C92.16195145 278.74916002 91.95704938 277.13783671 91.95849514 274.29691792 C91.95650409 273.43402946 91.95451304 272.571141 91.95246166 271.68210441 C91.9553745 270.73366965 91.95828734 269.7852349 91.96128845 268.80805969 C91.96043403 267.80094254 91.9595796 266.79382538 91.95869929 265.75618953 C91.9570461 262.36588423 91.96256327 258.97562792 91.96801758 255.58532715 C91.96829951 253.16127015 91.9681416 250.73721307 91.96757507 248.31315613 C91.96734701 243.08628169 91.97019194 237.85941842 91.97581291 232.63254738 C91.98393464 225.07533855 91.98654382 217.51813576 91.9878009 209.96092304 C91.98999036 197.70030432 91.99664758 185.43969225 92.00610352 173.17907715 C92.01528037 161.26794467 92.02235987 149.35681401 92.02661133 137.44567871 C92.02687405 136.71166597 92.02713678 135.97765323 92.02740746 135.22139768 C92.02871248 131.53912806 92.02997619 127.85685843 92.03121936 124.1745888 C92.04158867 93.61903263 92.05927837 63.06348452 92.08154297 32.50793457 C90.19139465 32.52458916 90.19139465 32.52458916 88.26306152 32.5415802 C76.37498823 32.64303599 64.48700303 32.71793858 52.59859467 32.76699543 C46.48693262 32.7930642 40.37562071 32.82841366 34.26416016 32.88513184 C28.3637804 32.93954699 22.46373696 32.96937557 16.56312561 32.98232079 C14.31448575 32.99154348 12.06586384 33.0095534 9.81736755 33.03658485 C6.66218614 33.07300031 3.50838585 33.07787453 0.35302734 33.07556152 C-0.57198578 33.0935379 -1.4969989 33.11151428 -2.45004272 33.1300354 C-8.82353783 33.07963847 -12.96270788 31.54450159 -17.91845703 27.50793457 C-21.42620242 23.82480191 -22.20381704 20.95806946 -22.41845703 16.00793457 C-22.21815452 11.08716947 -21.34762776 8.2078293 -17.91845703 4.50793457 C-12.37539376 -0.40063485 -7.17942135 -0.05668372 0 0 Z " fill="#ECEEF0" transform="translate(119.91845703125,159.4920654296875)"/>
<path d="M0 0 C1.21913086 -0.0309375 1.21913086 -0.0309375 2.46289062 -0.0625 C14.23727589 -0.13743642 24.3821608 4.92667803 33 12.8125 C41.44745203 21.68919248 44.98873741 31.53406234 45.0625 43.4375 C45.083125 44.25025391 45.10375 45.06300781 45.125 45.90039062 C45.19993642 57.67477589 40.13582197 67.8196608 32.25 76.4375 C21.34287195 86.79716602 9.79489755 88.74900942 -4.50390625 88.52734375 C-10.05073492 88.30652526 -14.40339042 87.08535301 -19.1875 84.25 C-19.96222656 83.80269531 -20.73695313 83.35539062 -21.53515625 82.89453125 C-31.77733327 76.51668145 -39.42421254 67.75379215 -42.86328125 55.92578125 C-44.15177295 45.29184375 -44.79345942 33.70897178 -39.1875 24.25 C-38.74019531 23.47527344 -38.29289063 22.70054688 -37.83203125 21.90234375 C-31.54953563 11.81329582 -22.90589849 4.15046183 -11.26513672 0.67626953 C-7.53839829 -0.08834684 -3.79199107 0.02349801 0 0 Z " fill="#ECEEF0" transform="translate(255.1875,60.75)"/>
</svg>
