<svg width="104" height="110" viewBox="0 0 104 110" fill="none" xmlns="http://www.w3.org/2000/svg">
<path d="M33.3681 40.5605L38.9041 5.08569C39.095 3.87668 40.7176 3.59034 41.2903 4.67208L47.2398 15.8077L33.3681 40.5605ZM72.7244 49.1826L67.443 16.5076C67.2839 15.4895 66.0112 15.0759 65.2795 15.8077L32 49.1826L50.4214 59.5228C51.5668 60.1591 52.9985 60.1591 54.1439 59.5228L72.7244 49.1826ZM57.7709 20.6755L53.5076 12.5624C53.0303 11.6398 51.7259 11.6398 51.2486 12.5624L32.5091 45.9692L57.7709 20.6755Z" fill="white"/>
<path d="M17.217 77.12V80.976H21.537V82.096H17.217V87H15.841V75.984H22.329L22.161 77.12H17.217ZM29.0908 78.576V85.936H31.4668V87H25.1468V85.936H27.7468V79.64H25.2268V78.576H29.0908ZM28.0188 74.632C28.3174 74.632 28.5548 74.7227 28.7308 74.904C28.9121 75.0853 29.0028 75.3067 29.0028 75.568C29.0028 75.84 28.9121 76.0693 28.7308 76.256C28.5548 76.4373 28.3174 76.528 28.0188 76.528C27.7361 76.528 27.5041 76.4373 27.3228 76.256C27.1414 76.0693 27.0508 75.84 27.0508 75.568C27.0508 75.3067 27.1414 75.0853 27.3228 74.904C27.5041 74.7227 27.7361 74.632 28.0188 74.632ZM34.5005 87V85.968H35.8125V79.608H34.5005V78.576H36.8365L37.0845 80.568C37.4098 79.8747 37.8045 79.3387 38.2685 78.96C38.7325 78.5813 39.3458 78.392 40.1085 78.392C40.3432 78.392 40.5512 78.4107 40.7325 78.448C40.9192 78.48 41.1085 78.5227 41.3005 78.576L40.9085 79.776C40.7325 79.728 40.5725 79.6933 40.4285 79.672C40.2845 79.6453 40.1192 79.632 39.9325 79.632C39.2872 79.632 38.7325 79.8613 38.2685 80.32C37.8045 80.7787 37.4338 81.472 37.1565 82.4V85.968H38.8685V87H34.5005ZM40.0045 81.424V79.592L40.1405 78.576H41.3005L41.1085 81.424H40.0045ZM45.0703 83.264C45.0969 83.9147 45.2223 84.448 45.4463 84.864C45.6703 85.2747 45.9663 85.5787 46.3343 85.776C46.7023 85.968 47.1023 86.064 47.5343 86.064C47.9663 86.064 48.3556 86 48.7023 85.872C49.0543 85.744 49.4143 85.5547 49.7823 85.304L50.4143 86.192C50.0196 86.5013 49.5689 86.744 49.0623 86.92C48.5609 87.096 48.0463 87.184 47.5183 87.184C46.7023 87.184 46.0063 87 45.4303 86.632C44.8543 86.264 44.4143 85.752 44.1103 85.096C43.8116 84.4347 43.6623 83.6693 43.6623 82.8C43.6623 81.9467 43.8143 81.1893 44.1183 80.528C44.4223 79.8667 44.8489 79.3467 45.3983 78.968C45.9476 78.5893 46.5956 78.4 47.3423 78.4C48.0516 78.4 48.6623 78.568 49.1743 78.904C49.6863 79.2347 50.0783 79.7093 50.3503 80.328C50.6276 80.9413 50.7663 81.6747 50.7663 82.528C50.7663 82.672 50.7636 82.808 50.7583 82.936C50.7529 83.0587 50.7449 83.168 50.7343 83.264H45.0703ZM47.3583 79.504C46.7343 79.504 46.2116 79.7253 45.7903 80.168C45.3743 80.6107 45.1369 81.296 45.0783 82.224H49.4703C49.4543 81.3227 49.2569 80.6453 48.8783 80.192C48.4996 79.7333 47.9929 79.504 47.3583 79.504ZM54.952 79.672C55.2613 79.2667 55.616 78.9547 56.016 78.736C56.4213 78.512 56.8667 78.4 57.352 78.4C58.104 78.4 58.712 78.5813 59.176 78.944C59.64 79.3067 59.9787 79.8187 60.192 80.48C60.4053 81.136 60.512 81.904 60.512 82.784C60.512 83.632 60.384 84.3893 60.128 85.056C59.872 85.7173 59.496 86.2373 59 86.616C58.5093 86.9947 57.9013 87.184 57.176 87.184C56.2 87.184 55.4347 86.832 54.88 86.128L54.784 87H53.608V75.184L54.952 75.016V79.672ZM56.856 86.096C57.56 86.096 58.1013 85.824 58.48 85.28C58.8587 84.736 59.048 83.9013 59.048 82.776C59.048 82.04 58.9733 81.4293 58.824 80.944C58.6747 80.4533 58.4507 80.088 58.152 79.848C57.8587 79.6027 57.496 79.48 57.064 79.48C56.5947 79.48 56.1813 79.6213 55.824 79.904C55.472 80.1813 55.1813 80.4907 54.952 80.832V85.008C55.1707 85.3387 55.4453 85.6027 55.776 85.8C56.112 85.9973 56.472 86.096 56.856 86.096ZM69.2338 85.16C69.2338 85.496 69.2898 85.7413 69.4018 85.896C69.5138 86.0507 69.6871 86.1653 69.9218 86.24L69.5938 87.184C69.2311 87.136 68.9138 87.0213 68.6418 86.84C68.3698 86.6533 68.1724 86.3733 68.0498 86C67.7458 86.3893 67.3671 86.6853 66.9138 86.888C66.4604 87.0853 65.9591 87.184 65.4098 87.184C64.5671 87.184 63.9031 86.9467 63.4178 86.472C62.9324 85.9973 62.6898 85.368 62.6898 84.584C62.6898 83.7147 63.0284 83.048 63.7057 82.584C64.3831 82.12 65.3618 81.888 66.6418 81.888H67.8818V81.184C67.8818 80.576 67.7031 80.1467 67.3458 79.896C66.9938 79.64 66.5031 79.512 65.8738 79.512C65.5964 79.512 65.2711 79.5467 64.8978 79.616C64.5244 79.68 64.1191 79.7893 63.6818 79.944L63.3298 78.928C63.8471 78.736 64.3324 78.6 64.7858 78.52C65.2391 78.44 65.6711 78.4 66.0818 78.4C67.1324 78.4 67.9191 78.6453 68.4418 79.136C68.9698 79.6213 69.2338 80.2827 69.2338 81.12V85.16ZM65.7538 86.16C66.1698 86.16 66.5671 86.056 66.9458 85.848C67.3244 85.6347 67.6364 85.3413 67.8818 84.968V82.8H66.6658C65.7378 82.8 65.0818 82.96 64.6978 83.28C64.3191 83.6 64.1298 84.0293 64.1298 84.568C64.1298 85.0907 64.2631 85.488 64.5298 85.76C64.8018 86.0267 65.2098 86.16 65.7538 86.16ZM75.6595 86.072C76.3048 86.072 76.8142 85.952 77.1875 85.712C77.5662 85.4667 77.7555 85.1413 77.7555 84.736C77.7555 84.48 77.7075 84.2587 77.6115 84.072C77.5208 83.8853 77.3315 83.7173 77.0435 83.568C76.7555 83.4187 76.3128 83.2693 75.7155 83.12C75.1342 82.976 74.6275 82.8107 74.1955 82.624C73.7688 82.432 73.4355 82.184 73.1955 81.88C72.9608 81.576 72.8435 81.1813 72.8435 80.696C72.8435 80.2213 72.9768 79.8133 73.2435 79.472C73.5155 79.1253 73.8915 78.8613 74.3715 78.68C74.8515 78.4933 75.4088 78.4 76.0435 78.4C76.7208 78.4 77.3102 78.4907 77.8115 78.672C78.3182 78.848 78.7475 79.0667 79.0995 79.328L78.5075 80.24C78.1875 80.0213 77.8355 79.8427 77.4515 79.704C77.0675 79.56 76.6035 79.488 76.0595 79.488C75.3982 79.488 74.9288 79.592 74.6515 79.8C74.3742 80.0027 74.2355 80.2667 74.2355 80.592C74.2355 80.8373 74.3022 81.0427 74.4355 81.208C74.5742 81.368 74.8062 81.5147 75.1315 81.648C75.4568 81.776 75.9048 81.9173 76.4755 82.072C77.0248 82.216 77.5022 82.3893 77.9075 82.592C78.3182 82.7947 78.6382 83.0613 78.8675 83.392C79.0968 83.7227 79.2115 84.1493 79.2115 84.672C79.2115 85.2693 79.0408 85.7547 78.6995 86.128C78.3582 86.496 77.9155 86.7653 77.3715 86.936C76.8328 87.1013 76.2622 87.184 75.6595 87.184C74.8968 87.184 74.2462 87.0747 73.7075 86.856C73.1742 86.632 72.7262 86.3627 72.3635 86.048L73.1315 85.16C73.4622 85.432 73.8408 85.6533 74.2675 85.824C74.6995 85.9893 75.1635 86.072 75.6595 86.072ZM83.4453 83.264C83.4719 83.9147 83.5973 84.448 83.8213 84.864C84.0453 85.2747 84.3413 85.5787 84.7093 85.776C85.0773 85.968 85.4773 86.064 85.9093 86.064C86.3413 86.064 86.7306 86 87.0773 85.872C87.4293 85.744 87.7893 85.5547 88.1573 85.304L88.7893 86.192C88.3946 86.5013 87.9439 86.744 87.4373 86.92C86.9359 87.096 86.4213 87.184 85.8933 87.184C85.0773 87.184 84.3813 87 83.8053 86.632C83.2293 86.264 82.7893 85.752 82.4853 85.096C82.1866 84.4347 82.0373 83.6693 82.0373 82.8C82.0373 81.9467 82.1893 81.1893 82.4933 80.528C82.7973 79.8667 83.2239 79.3467 83.7733 78.968C84.3226 78.5893 84.9706 78.4 85.7173 78.4C86.4266 78.4 87.0373 78.568 87.5493 78.904C88.0613 79.2347 88.4533 79.7093 88.7253 80.328C89.0026 80.9413 89.1413 81.6747 89.1413 82.528C89.1413 82.672 89.1386 82.808 89.1333 82.936C89.1279 83.0587 89.1199 83.168 89.1093 83.264H83.4453ZM85.7333 79.504C85.1093 79.504 84.5866 79.7253 84.1653 80.168C83.7493 80.6107 83.5119 81.296 83.4533 82.224H87.8453C87.8293 81.3227 87.6319 80.6453 87.2533 80.192C86.8746 79.7333 86.3679 79.504 85.7333 79.504Z" fill="white"/>
</svg>
