<svg width="104" height="110" viewBox="0 0 104 110" fill="none" xmlns="http://www.w3.org/2000/svg">
<path d="M78.9494 29.5334L54.4666 5.05057C53.0658 3.64981 50.7515 3.64981 49.3507 5.05057L44.2958 10.1055L50.7515 16.5612C52.2741 16.074 53.9793 16.3785 55.1365 17.5965C56.3545 18.8146 56.6591 20.5198 56.1718 22.0424L62.3839 28.2545C63.9065 27.7673 65.6118 28.0718 66.8298 29.2898C68.5351 30.9342 68.5351 33.6748 66.8298 35.3801C65.1245 37.0854 62.4448 37.0854 60.7395 35.3801C59.4606 34.1011 59.1561 32.2741 59.826 30.6906L54.0402 24.9048V40.1305C54.4666 40.3132 54.832 40.6177 55.1974 40.9222C56.9027 42.5666 56.9027 45.3072 55.1974 47.0125C53.4921 48.6569 50.8124 48.6569 49.1071 47.0125C47.4019 45.3072 47.4019 42.6275 49.1071 40.9222C49.5334 40.4959 50.0207 40.1914 50.5079 40.0087V24.6003C50.0207 24.4176 49.5334 24.0522 49.1071 23.6868C47.8282 22.4078 47.5237 20.5808 48.1936 18.9973L41.7988 12.6634L25.0506 29.4116C23.6498 30.8124 23.6498 33.1267 25.0506 34.5275L49.4725 58.9494C50.8733 60.3502 53.1876 60.3502 54.5884 58.9494L78.8885 34.6493C80.3502 33.1876 80.3502 30.9342 78.9494 29.5334Z" fill="white"/>
<path d="M42.6254 87.184C41.756 87.184 40.9987 86.9733 40.3534 86.552C39.7134 86.1307 39.2174 85.4987 38.8654 84.656C38.5134 83.8133 38.3374 82.7573 38.3374 81.488C38.3374 80.5387 38.4627 79.7093 38.7134 79C38.9694 78.2907 39.3134 77.6987 39.7454 77.224C40.1827 76.7493 40.676 76.3947 41.2254 76.16C41.78 75.9253 42.3534 75.808 42.9454 75.808C43.6654 75.808 44.2627 75.912 44.7374 76.12C45.212 76.3227 45.6654 76.6213 46.0974 77.016L45.2574 77.888C44.9214 77.5733 44.5667 77.3413 44.1934 77.192C43.8254 77.0427 43.412 76.968 42.9534 76.968C42.5534 76.968 42.1667 77.0453 41.7934 77.2C41.42 77.3547 41.084 77.608 40.7854 77.96C40.492 78.3067 40.2574 78.768 40.0814 79.344C39.9107 79.92 39.8254 80.6347 39.8254 81.488C39.8254 82.5493 39.9347 83.4133 40.1534 84.08C40.3774 84.7467 40.7054 85.2373 41.1374 85.552C41.5747 85.8613 42.1134 86.016 42.7534 86.016C43.1374 86.016 43.5 85.9707 43.8414 85.88C44.188 85.7893 44.524 85.6587 44.8494 85.488V82.128H42.6814L42.5134 80.976H46.2254V86.224C45.7294 86.4907 45.2014 86.7173 44.6414 86.904C44.0814 87.0907 43.4094 87.184 42.6254 87.184ZM53.0751 78.576V85.936H55.4511V87H49.1311V85.936H51.7311V79.64H49.2111V78.576H53.0751ZM52.0031 74.632C52.3018 74.632 52.5391 74.7227 52.7151 74.904C52.8965 75.0853 52.9871 75.3067 52.9871 75.568C52.9871 75.84 52.8965 76.0693 52.7151 76.256C52.5391 76.4373 52.3018 76.528 52.0031 76.528C51.7205 76.528 51.4885 76.4373 51.3071 76.256C51.1258 76.0693 51.0351 75.84 51.0351 75.568C51.0351 75.3067 51.1258 75.0853 51.3071 74.904C51.4885 74.7227 51.7205 74.632 52.0031 74.632ZM65.0929 86.576C64.8049 86.768 64.4555 86.9173 64.0449 87.024C63.6342 87.1307 63.2315 87.184 62.8369 87.184C61.9302 87.184 61.2315 86.9467 60.7409 86.472C60.2502 85.9973 60.0049 85.3867 60.0049 84.64V79.616H58.0689V78.576H60.0049V76.664L61.3489 76.504V78.576H64.2609L64.1009 79.616H61.3489V84.624C61.3489 85.0933 61.4715 85.4507 61.7169 85.696C61.9675 85.9413 62.3809 86.064 62.9569 86.064C63.2715 86.064 63.5622 86.0267 63.8289 85.952C64.0955 85.8773 64.3435 85.7813 64.5729 85.664L65.0929 86.576Z" fill="white"/>
</svg>
