<svg width="104" height="110" viewBox="0 0 104 110" fill="none" xmlns="http://www.w3.org/2000/svg">
<path d="M52.2 49.2984L65.136 45.7816L66.8804 26.8032H43.8728L43.3016 20.492H67.4544L68.09 14.3012H36.31L38.0908 32.9996H59.9868L59.256 41.0244L52.2 42.892L45.144 41.0244L44.7016 35.8612H38.3456L39.2668 45.7844L52.2 49.2984ZM27 4H77.4L72.8556 54.4L52.2 60L31.5444 54.4L27 4Z" fill="white"/>
<path d="M40.4125 87V81.776H36.2525V87H34.8685V75.984H36.2525V80.64H40.4125V75.984H41.7965V87H40.4125ZM48.1102 77.176V87H46.7263V77.176H43.2862V75.984H51.5983L51.4543 77.176H48.1102ZM60.248 75.984L60.872 87H59.536L59.192 81.248C59.176 80.8587 59.16 80.464 59.144 80.064C59.128 79.664 59.1173 79.28 59.112 78.912C59.1067 78.544 59.104 78.216 59.104 77.928C59.104 77.64 59.104 77.416 59.104 77.256L57.248 85.024H55.856L53.864 77.256C53.8693 77.4107 53.8747 77.64 53.88 77.944C53.8853 78.2427 53.888 78.5813 53.888 78.96C53.8933 79.3387 53.8907 79.728 53.88 80.128C53.8747 80.5227 53.864 80.8907 53.848 81.232L53.552 87H52.248L52.872 75.984H54.808L56.592 83.528L58.296 75.984H60.248ZM63.0417 87V75.984H64.4337V85.76H69.4577L69.2977 87H63.0417Z" fill="white"/>
</svg>
