<svg width="104" height="110" viewBox="0 0 104 110" fill="none" xmlns="http://www.w3.org/2000/svg">
<path d="M24 4C42.6793 4 61.3207 4 80 4C80 22.6793 80 41.3585 80 60C61.3585 60 42.6793 60 24 60C24 41.2829 24 22.6415 24 4ZM74.1013 33.6448C72.9669 31.603 71.4166 30.2039 69.1857 29.7124C67.5976 29.3342 66.0094 29.3342 64.4213 29.6745C59.2789 30.7333 57.0858 36.9345 60.4132 41.056C61.5854 42.4929 63.1357 43.3626 64.7616 44.1188C66.1985 44.7995 67.6732 45.4423 69.1101 46.1607C70.0932 46.6523 70.5091 47.5598 70.3957 48.6563C70.2822 49.7529 69.526 50.3579 68.5807 50.6982C66.4632 51.4544 64.0054 50.7738 62.5685 48.9966C62.266 48.6185 61.9635 48.2026 61.661 47.7866C60.2242 48.6185 58.8251 49.4126 57.4261 50.2444C58.2957 51.946 59.5057 53.3072 61.1695 54.2147C64.0054 55.765 66.9926 55.9919 70.0554 55.2356C72.0594 54.7441 73.761 53.7232 74.8197 51.8704C76.7859 48.3538 75.6516 43.9676 72.1729 41.8123C70.6225 40.867 68.8832 40.2242 67.2573 39.3923C66.4632 38.9764 65.6313 38.5982 64.9507 38.0689C63.7407 37.0858 63.9676 35.1195 65.3288 34.3633C66.6523 33.607 68.5051 34.0608 69.526 35.3842C69.7529 35.6489 69.9041 35.9514 70.131 36.2539C71.4166 35.3842 72.74 34.5145 74.1013 33.6448ZM38.7468 50.8116C39.503 52.4375 40.5996 53.7232 42.1499 54.555C44.1539 55.6516 46.3471 55.8406 48.578 55.5003C50.582 55.1978 52.2458 54.2903 53.3423 52.4753C54.2498 50.9629 54.5145 49.2991 54.5145 47.5219C54.5145 41.7745 54.5145 36.027 54.5145 30.2795C54.5145 30.1283 54.5145 29.9392 54.5145 29.7502C52.7373 29.7502 51.0358 29.7502 49.2586 29.7502C49.2586 29.977 49.2586 30.1661 49.2586 30.393C49.2586 36.0648 49.2586 41.6988 49.2586 47.3707C49.2586 47.9001 49.2208 48.4673 49.1452 48.9966C48.9939 49.8663 48.5402 50.5091 47.6705 50.7738C46.0446 51.2654 44.7211 50.7738 43.7758 49.3747C43.549 48.9966 43.3221 48.6185 43.0574 48.2404C41.5827 49.1101 40.1837 49.9419 38.7468 50.8116Z" fill="white"/>
<path d="M14.1353 75.984V83.344C14.1353 83.8027 14.0739 84.2613 13.9513 84.72C13.8339 85.1733 13.6313 85.5867 13.3433 85.96C13.0606 86.328 12.6766 86.624 12.1913 86.848C11.7059 87.072 11.1006 87.184 10.3752 87.184C9.83658 87.184 9.30592 87.0987 8.78325 86.928C8.26592 86.7573 7.78858 86.5093 7.35125 86.184L7.96725 85.264C8.44725 85.5627 8.88458 85.7653 9.27925 85.872C9.67392 85.9733 10.0339 86.024 10.3593 86.024C11.1273 86.024 11.7166 85.7787 12.1273 85.288C12.5433 84.7973 12.7513 84.1227 12.7513 83.264V77.12H9.48725V75.984H14.1353ZM22.945 85.16C22.945 85.496 23.001 85.7413 23.113 85.896C23.225 86.0507 23.3983 86.1653 23.633 86.24L23.305 87.184C22.9423 87.136 22.625 87.0213 22.353 86.84C22.081 86.6533 21.8837 86.3733 21.761 86C21.457 86.3893 21.0783 86.6853 20.625 86.888C20.1717 87.0853 19.6703 87.184 19.121 87.184C18.2783 87.184 17.6143 86.9467 17.129 86.472C16.6437 85.9973 16.401 85.368 16.401 84.584C16.401 83.7147 16.7397 83.048 17.417 82.584C18.0943 82.12 19.073 81.888 20.353 81.888H21.593V81.184C21.593 80.576 21.4143 80.1467 21.057 79.896C20.705 79.64 20.2143 79.512 19.585 79.512C19.3077 79.512 18.9823 79.5467 18.609 79.616C18.2357 79.68 17.8303 79.7893 17.393 79.944L17.041 78.928C17.5583 78.736 18.0437 78.6 18.497 78.52C18.9503 78.44 19.3823 78.4 19.793 78.4C20.8437 78.4 21.6303 78.6453 22.153 79.136C22.681 79.6213 22.945 80.2827 22.945 81.12V85.16ZM19.465 86.16C19.881 86.16 20.2783 86.056 20.657 85.848C21.0357 85.6347 21.3477 85.3413 21.593 84.968V82.8H20.377C19.449 82.8 18.793 82.96 18.409 83.28C18.0303 83.6 17.841 84.0293 17.841 84.568C17.841 85.0907 17.9743 85.488 18.241 85.76C18.513 86.0267 18.921 86.16 19.465 86.16ZM33.0508 78.576L29.9868 87H28.4268L25.3868 78.576H26.8108L29.2508 85.776L31.6588 78.576H33.0508ZM41.1725 85.16C41.1725 85.496 41.2285 85.7413 41.3405 85.896C41.4525 86.0507 41.6258 86.1653 41.8605 86.24L41.5325 87.184C41.1698 87.136 40.8525 87.0213 40.5805 86.84C40.3085 86.6533 40.1112 86.3733 39.9885 86C39.6845 86.3893 39.3058 86.6853 38.8525 86.888C38.3992 87.0853 37.8978 87.184 37.3485 87.184C36.5058 87.184 35.8418 86.9467 35.3565 86.472C34.8712 85.9973 34.6285 85.368 34.6285 84.584C34.6285 83.7147 34.9672 83.048 35.6445 82.584C36.3218 82.12 37.3005 81.888 38.5805 81.888H39.8205V81.184C39.8205 80.576 39.6418 80.1467 39.2845 79.896C38.9325 79.64 38.4418 79.512 37.8125 79.512C37.5352 79.512 37.2098 79.5467 36.8365 79.616C36.4632 79.68 36.0578 79.7893 35.6205 79.944L35.2685 78.928C35.7858 78.736 36.2712 78.6 36.7245 78.52C37.1778 78.44 37.6098 78.4 38.0205 78.4C39.0712 78.4 39.8578 78.6453 40.3805 79.136C40.9085 79.6213 41.1725 80.2827 41.1725 81.12V85.16ZM37.6925 86.16C38.1085 86.16 38.5058 86.056 38.8845 85.848C39.2632 85.6347 39.5752 85.3413 39.8205 84.968V82.8H38.6045C37.6765 82.8 37.0205 82.96 36.6365 83.28C36.2578 83.6 36.0685 84.0293 36.0685 84.568C36.0685 85.0907 36.2018 85.488 36.4685 85.76C36.7405 86.0267 37.1485 86.16 37.6925 86.16ZM51.2303 83.952C51.2303 84.5813 51.0729 85.1413 50.7583 85.632C50.4436 86.1173 49.9876 86.4987 49.3903 86.776C48.7929 87.048 48.0649 87.184 47.2063 87.184C46.4009 87.184 45.6703 87.0613 45.0143 86.816C44.3636 86.5707 43.8063 86.224 43.3423 85.776L44.1663 84.848C44.5503 85.2053 44.9903 85.4907 45.4863 85.704C45.9823 85.912 46.5636 86.016 47.2303 86.016C47.6783 86.016 48.0969 85.944 48.4863 85.8C48.8756 85.6507 49.1903 85.4267 49.4303 85.128C49.6703 84.824 49.7903 84.44 49.7903 83.976C49.7903 83.6187 49.7209 83.3147 49.5823 83.064C49.4436 82.8133 49.1983 82.592 48.8463 82.4C48.4943 82.2027 48.0036 82.0107 47.3743 81.824C46.6489 81.6107 46.0196 81.3707 45.4863 81.104C44.9583 80.832 44.5476 80.4987 44.2543 80.104C43.9663 79.7093 43.8223 79.2213 43.8223 78.64C43.8223 78.0907 43.9743 77.6027 44.2783 77.176C44.5823 76.7493 45.0009 76.416 45.5343 76.176C46.0729 75.9307 46.6916 75.808 47.3903 75.808C48.1529 75.808 48.8143 75.9173 49.3743 76.136C49.9396 76.3493 50.4516 76.6587 50.9103 77.064L50.0943 77.968C49.6996 77.616 49.2756 77.3627 48.8223 77.208C48.3689 77.048 47.9076 76.968 47.4383 76.968C47.0383 76.968 46.6703 77.0293 46.3343 77.152C46.0036 77.2693 45.7369 77.448 45.5343 77.688C45.3369 77.9227 45.2383 78.224 45.2383 78.592C45.2383 78.9067 45.3236 79.1787 45.4943 79.408C45.6649 79.6373 45.9529 79.848 46.3583 80.04C46.7636 80.2267 47.3156 80.424 48.0143 80.632C48.5849 80.7973 49.1129 81.0053 49.5983 81.256C50.0889 81.5013 50.4836 81.8373 50.7823 82.264C51.0809 82.6853 51.2303 83.248 51.2303 83.952ZM57.176 86.024C57.5973 86.024 57.9893 85.9547 58.352 85.816C58.72 85.6773 59.0587 85.5013 59.368 85.288L60.024 86.168C59.656 86.4827 59.2133 86.7307 58.696 86.912C58.1787 87.0933 57.672 87.184 57.176 87.184C56.3387 87.184 55.624 87.0053 55.032 86.648C54.4453 86.2853 53.9973 85.7787 53.688 85.128C53.3787 84.472 53.224 83.704 53.224 82.824C53.224 81.9813 53.3787 81.2267 53.688 80.56C54.0027 79.888 54.4533 79.36 55.04 78.976C55.632 78.592 56.3493 78.4 57.192 78.4C57.7307 78.4 58.2347 78.4827 58.704 78.648C59.1787 78.808 59.6133 79.0507 60.008 79.376L59.352 80.272C58.9947 80.0213 58.6347 79.8347 58.272 79.712C57.9147 79.584 57.5493 79.52 57.176 79.52C56.4507 79.52 55.8533 79.792 55.384 80.336C54.9147 80.88 54.68 81.7093 54.68 82.824C54.68 83.5707 54.7867 84.1813 55 84.656C55.2187 85.1253 55.5147 85.472 55.888 85.696C56.2667 85.9147 56.696 86.024 57.176 86.024ZM62.5617 87V85.968H63.8737V79.608H62.5617V78.576H64.8977L65.1457 80.568C65.4711 79.8747 65.8657 79.3387 66.3297 78.96C66.7937 78.5813 67.4071 78.392 68.1697 78.392C68.4044 78.392 68.6124 78.4107 68.7937 78.448C68.9804 78.48 69.1697 78.5227 69.3617 78.576L68.9697 79.776C68.7937 79.728 68.6337 79.6933 68.4897 79.672C68.3457 79.6453 68.1804 79.632 67.9937 79.632C67.3484 79.632 66.7937 79.8613 66.3297 80.32C65.8657 80.7787 65.4951 81.472 65.2177 82.4V85.968H66.9297V87H62.5617ZM68.0657 81.424V79.592L68.2017 78.576H69.3617L69.1697 81.424H68.0657ZM75.8595 78.576V85.936H78.2355V87H71.9155V85.936H74.5155V79.64H71.9955V78.576H75.8595ZM74.7875 74.632C75.0862 74.632 75.3235 74.7227 75.4995 74.904C75.6808 75.0853 75.7715 75.3067 75.7715 75.568C75.7715 75.84 75.6808 76.0693 75.4995 76.256C75.3235 76.4373 75.0862 76.528 74.7875 76.528C74.5048 76.528 74.2728 76.4373 74.0915 76.256C73.9102 76.0693 73.8195 75.84 73.8195 75.568C73.8195 75.3067 73.9102 75.0853 74.0915 74.904C74.2728 74.7227 74.5048 74.632 74.7875 74.632ZM84.4773 78.4C85.2239 78.4 85.8186 78.5813 86.2613 78.944C86.7093 79.3067 87.0319 79.8187 87.2293 80.48C87.4266 81.136 87.5253 81.904 87.5253 82.784C87.5253 83.632 87.4053 84.3893 87.1653 85.056C86.9306 85.7173 86.5733 86.2373 86.0933 86.616C85.6133 86.9947 85.0079 87.184 84.2773 87.184C83.3546 87.184 82.6133 86.8587 82.0533 86.208V90.224L80.7093 90.392V78.576H81.8533L81.9653 79.752C82.2746 79.32 82.6426 78.9867 83.0693 78.752C83.5013 78.5173 83.9706 78.4 84.4773 78.4ZM84.1573 79.48C83.6933 79.48 83.2826 79.6213 82.9253 79.904C82.5733 80.1813 82.2826 80.4907 82.0533 80.832V85.008C82.2719 85.3333 82.5466 85.592 82.8773 85.784C83.2133 85.9707 83.5813 86.064 83.9813 86.064C84.6799 86.064 85.2053 85.7973 85.5573 85.264C85.9093 84.7307 86.0853 83.9013 86.0853 82.776C86.0853 82.04 86.0159 81.4293 85.8773 80.944C85.7386 80.4533 85.5279 80.088 85.2453 79.848C84.9626 79.6027 84.5999 79.48 84.1573 79.48ZM96.511 86.576C96.223 86.768 95.8737 86.9173 95.463 87.024C95.0523 87.1307 94.6497 87.184 94.255 87.184C93.3483 87.184 92.6497 86.9467 92.159 86.472C91.6683 85.9973 91.423 85.3867 91.423 84.64V79.616H89.487V78.576H91.423V76.664L92.767 76.504V78.576H95.679L95.519 79.616H92.767V84.624C92.767 85.0933 92.8897 85.4507 93.135 85.696C93.3857 85.9413 93.799 86.064 94.375 86.064C94.6897 86.064 94.9803 86.0267 95.247 85.952C95.5137 85.8773 95.7617 85.7813 95.991 85.664L96.511 86.576Z" fill="white"/>
</svg>
