<svg width="104" height="110" viewBox="0 0 104 110" fill="none" xmlns="http://www.w3.org/2000/svg">
<g clip-path="url(#clip0_3001_2486)">
<path d="M31.3733 13.1466V50.9466C26.8 45.9066 24 39.2799 24 31.9999C24 24.7199 26.8 18.0933 31.3733 13.1466Z" fill="white"/>
<path d="M34.3601 17.2533L50.5068 49.64H34.3601V17.2533Z" fill="white"/>
<path d="M52 46L36.1333 14.36H67.8666L52 46Z" fill="white"/>
<path d="M52.0001 4C59.2801 4 65.9067 6.8 70.8534 11.3733H33.1467C38.0934 6.8 44.7201 4 52.0001 4Z" fill="white"/>
<path d="M69.6401 49.64H53.4934L69.6401 17.2533V49.64Z" fill="white"/>
<path d="M70.8534 52.6267C65.9067 57.2 59.2801 60 52.0001 60C44.7201 60 38.0934 57.2 33.1467 52.6267H70.8534Z" fill="white"/>
<path d="M72.6267 50.8533V13.1466C77.2 18.0933 80 24.7199 80 31.9999C80 39.2799 77.2 45.9066 72.6267 50.8533Z" fill="white"/>
<path d="M34.3601 17.2533L50.5068 49.64H34.3601V17.2533Z" fill="white"/>
<path d="M52.0002 46L36.1335 14.36H67.8669L52.0002 46Z" fill="white"/>
<path d="M53.4934 49.64L69.6401 17.2533V49.64H53.4934Z" fill="white"/>
<path d="M36.1333 14.36H67.8666L52 46L36.1333 14.36Z" fill="white"/>
</g>
<path d="M23.793 75.984L24.417 87H23.081L22.737 81.248C22.721 80.8587 22.705 80.464 22.689 80.064C22.673 79.664 22.6623 79.28 22.657 78.912C22.6517 78.544 22.649 78.216 22.649 77.928C22.649 77.64 22.649 77.416 22.649 77.256L20.793 85.024H19.401L17.409 77.256C17.4143 77.4107 17.4197 77.64 17.425 77.944C17.4303 78.2427 17.433 78.5813 17.433 78.96C17.4383 79.3387 17.4357 79.728 17.425 80.128C17.4197 80.5227 17.409 80.8907 17.393 81.232L17.097 87H15.793L16.417 75.984H18.353L20.137 83.528L21.841 75.984H23.793ZM32.0588 85.16C32.0588 85.496 32.1148 85.7413 32.2268 85.896C32.3388 86.0507 32.5121 86.1653 32.7468 86.24L32.4188 87.184C32.0561 87.136 31.7388 87.0213 31.4668 86.84C31.1948 86.6533 30.9974 86.3733 30.8748 86C30.5708 86.3893 30.1921 86.6853 29.7388 86.888C29.2854 87.0853 28.7841 87.184 28.2348 87.184C27.3921 87.184 26.7281 86.9467 26.2428 86.472C25.7574 85.9973 25.5148 85.368 25.5148 84.584C25.5148 83.7147 25.8534 83.048 26.5308 82.584C27.2081 82.12 28.1868 81.888 29.4668 81.888H30.7068V81.184C30.7068 80.576 30.5281 80.1467 30.1708 79.896C29.8188 79.64 29.3281 79.512 28.6988 79.512C28.4214 79.512 28.0961 79.5467 27.7228 79.616C27.3494 79.68 26.9441 79.7893 26.5068 79.944L26.1548 78.928C26.6721 78.736 27.1574 78.6 27.6108 78.52C28.0641 78.44 28.4961 78.4 28.9068 78.4C29.9574 78.4 30.7441 78.6453 31.2668 79.136C31.7948 79.6213 32.0588 80.2827 32.0588 81.12V85.16ZM28.5788 86.16C28.9948 86.16 29.3921 86.056 29.7708 85.848C30.1494 85.6347 30.4614 85.3413 30.7068 84.968V82.8H29.4908C28.5628 82.8 27.9068 82.96 27.5228 83.28C27.1441 83.6 26.9548 84.0293 26.9548 84.568C26.9548 85.0907 27.0881 85.488 27.3548 85.76C27.6268 86.0267 28.0348 86.16 28.5788 86.16ZM41.8285 86.576C41.5405 86.768 41.1912 86.9173 40.7805 87.024C40.3698 87.1307 39.9672 87.184 39.5725 87.184C38.6658 87.184 37.9672 86.9467 37.4765 86.472C36.9858 85.9973 36.7405 85.3867 36.7405 84.64V79.616H34.8045V78.576H36.7405V76.664L38.0845 76.504V78.576H40.9965L40.8365 79.616H38.0845V84.624C38.0845 85.0933 38.2072 85.4507 38.4525 85.696C38.7032 85.9413 39.1165 86.064 39.6925 86.064C40.0072 86.064 40.2978 86.0267 40.5645 85.952C40.8312 85.8773 41.0792 85.7813 41.3085 85.664L41.8285 86.576ZM45.3102 83.264C45.3369 83.9147 45.4622 84.448 45.6862 84.864C45.9102 85.2747 46.2062 85.5787 46.5742 85.776C46.9422 85.968 47.3422 86.064 47.7743 86.064C48.2063 86.064 48.5956 86 48.9423 85.872C49.2943 85.744 49.6543 85.5547 50.0223 85.304L50.6543 86.192C50.2596 86.5013 49.8089 86.744 49.3022 86.92C48.8009 87.096 48.2863 87.184 47.7583 87.184C46.9423 87.184 46.2462 87 45.6702 86.632C45.0942 86.264 44.6542 85.752 44.3502 85.096C44.0516 84.4347 43.9022 83.6693 43.9022 82.8C43.9022 81.9467 44.0542 81.1893 44.3582 80.528C44.6622 79.8667 45.0889 79.3467 45.6382 78.968C46.1876 78.5893 46.8356 78.4 47.5823 78.4C48.2916 78.4 48.9023 78.568 49.4142 78.904C49.9262 79.2347 50.3183 79.7093 50.5903 80.328C50.8676 80.9413 51.0063 81.6747 51.0063 82.528C51.0063 82.672 51.0036 82.808 50.9983 82.936C50.9929 83.0587 50.9849 83.168 50.9742 83.264H45.3102ZM47.5982 79.504C46.9742 79.504 46.4516 79.7253 46.0302 80.168C45.6142 80.6107 45.3769 81.296 45.3182 82.224H49.7102C49.6943 81.3227 49.4969 80.6453 49.1182 80.192C48.7396 79.7333 48.2329 79.504 47.5982 79.504ZM53.448 87V85.968H54.76V79.608H53.448V78.576H55.784L56.032 80.568C56.3573 79.8747 56.752 79.3387 57.216 78.96C57.68 78.5813 58.2933 78.392 59.056 78.392C59.2907 78.392 59.4987 78.4107 59.68 78.448C59.8667 78.48 60.056 78.5227 60.248 78.576L59.856 79.776C59.68 79.728 59.52 79.6933 59.376 79.672C59.232 79.6453 59.0667 79.632 58.88 79.632C58.2347 79.632 57.68 79.8613 57.216 80.32C56.752 80.7787 56.3813 81.472 56.104 82.4V85.968H57.816V87H53.448ZM58.952 81.424V79.592L59.088 78.576H60.248L60.056 81.424H58.952ZM66.7457 78.576V85.936H69.1217V87H62.8017V85.936H65.4017V79.64H62.8817V78.576H66.7457ZM65.6737 74.632C65.9724 74.632 66.2097 74.7227 66.3857 74.904C66.5671 75.0853 66.6577 75.3067 66.6577 75.568C66.6577 75.84 66.5671 76.0693 66.3857 76.256C66.2097 76.4373 65.9724 76.528 65.6737 76.528C65.3911 76.528 65.1591 76.4373 64.9777 76.256C64.7964 76.0693 64.7057 75.84 64.7057 75.568C64.7057 75.3067 64.7964 75.0853 64.9777 74.904C65.1591 74.7227 65.3911 74.632 65.6737 74.632ZM77.6275 85.16C77.6275 85.496 77.6835 85.7413 77.7955 85.896C77.9075 86.0507 78.0808 86.1653 78.3155 86.24L77.9875 87.184C77.6248 87.136 77.3075 87.0213 77.0355 86.84C76.7635 86.6533 76.5662 86.3733 76.4435 86C76.1395 86.3893 75.7608 86.6853 75.3075 86.888C74.8542 87.0853 74.3528 87.184 73.8035 87.184C72.9608 87.184 72.2968 86.9467 71.8115 86.472C71.3262 85.9973 71.0835 85.368 71.0835 84.584C71.0835 83.7147 71.4222 83.048 72.0995 82.584C72.7768 82.12 73.7555 81.888 75.0355 81.888H76.2755V81.184C76.2755 80.576 76.0968 80.1467 75.7395 79.896C75.3875 79.64 74.8968 79.512 74.2675 79.512C73.9902 79.512 73.6648 79.5467 73.2915 79.616C72.9182 79.68 72.5128 79.7893 72.0755 79.944L71.7235 78.928C72.2408 78.736 72.7262 78.6 73.1795 78.52C73.6328 78.44 74.0648 78.4 74.4755 78.4C75.5262 78.4 76.3128 78.6453 76.8355 79.136C77.3635 79.6213 77.6275 80.2827 77.6275 81.12V85.16ZM74.1475 86.16C74.5635 86.16 74.9608 86.056 75.3395 85.848C75.7182 85.6347 76.0302 85.3413 76.2755 84.968V82.8H75.0595C74.1315 82.8 73.4755 82.96 73.0915 83.28C72.7128 83.6 72.5235 84.0293 72.5235 84.568C72.5235 85.0907 72.6568 85.488 72.9235 85.76C73.1955 86.0267 73.6035 86.16 74.1475 86.16ZM83.9892 75.184V84.92C83.9892 85.336 84.1172 85.632 84.3733 85.808C84.6346 85.9787 84.9706 86.064 85.3812 86.064C85.6373 86.064 85.8799 86.0373 86.1093 85.984C86.3386 85.9307 86.5679 85.8587 86.7973 85.768L87.1573 86.752C86.9279 86.864 86.6426 86.9627 86.3012 87.048C85.9652 87.1387 85.5839 87.184 85.1572 87.184C84.4106 87.184 83.8053 86.9787 83.3412 86.568C82.8772 86.152 82.6452 85.5787 82.6452 84.848V76.248H80.0612V75.184H83.9892ZM31.7788 100.44C31.7788 99.48 31.6774 98.712 31.4748 98.136C31.2721 97.56 31.0054 97.128 30.6748 96.84C30.3441 96.552 29.9814 96.36 29.5868 96.264C29.1974 96.168 28.8134 96.12 28.4348 96.12H27.1388V104.888H28.4508C28.8454 104.888 29.2374 104.827 29.6268 104.704C30.0214 104.576 30.3814 104.352 30.7068 104.032C31.0321 103.707 31.2908 103.256 31.4828 102.68C31.6801 102.099 31.7788 101.352 31.7788 100.44ZM33.2588 100.44C33.2588 101.357 33.1601 102.141 32.9628 102.792C32.7708 103.437 32.5068 103.971 32.1708 104.392C31.8348 104.813 31.4508 105.141 31.0188 105.376C30.5921 105.605 30.1414 105.768 29.6668 105.864C29.1974 105.955 28.7361 106 28.2828 106H25.7548V94.984H28.1068C28.7521 94.984 29.3788 95.056 29.9868 95.2C30.6001 95.344 31.1521 95.6107 31.6428 96C32.1388 96.384 32.5308 96.9333 32.8188 97.648C33.1121 98.3627 33.2588 99.2933 33.2588 100.44ZM36.1965 102.264C36.2232 102.915 36.3485 103.448 36.5725 103.864C36.7965 104.275 37.0925 104.579 37.4605 104.776C37.8285 104.968 38.2285 105.064 38.6605 105.064C39.0925 105.064 39.4818 105 39.8285 104.872C40.1805 104.744 40.5405 104.555 40.9085 104.304L41.5405 105.192C41.1458 105.501 40.6952 105.744 40.1885 105.92C39.6872 106.096 39.1725 106.184 38.6445 106.184C37.8285 106.184 37.1325 106 36.5565 105.632C35.9805 105.264 35.5405 104.752 35.2365 104.096C34.9378 103.435 34.7885 102.669 34.7885 101.8C34.7885 100.947 34.9405 100.189 35.2445 99.528C35.5485 98.8667 35.9752 98.3467 36.5245 97.968C37.0738 97.5893 37.7218 97.4 38.4685 97.4C39.1778 97.4 39.7885 97.568 40.3005 97.904C40.8125 98.2347 41.2045 98.7093 41.4765 99.328C41.7538 99.9413 41.8925 100.675 41.8925 101.528C41.8925 101.672 41.8898 101.808 41.8845 101.936C41.8792 102.059 41.8712 102.168 41.8605 102.264H36.1965ZM38.4845 98.504C37.8605 98.504 37.3378 98.7253 36.9165 99.168C36.5005 99.6107 36.2632 100.296 36.2045 101.224H40.5965C40.5805 100.323 40.3832 99.6453 40.0045 99.192C39.6258 98.7333 39.1192 98.504 38.4845 98.504ZM47.1183 105.072C47.7636 105.072 48.2729 104.952 48.6463 104.712C49.0249 104.467 49.2143 104.141 49.2143 103.736C49.2143 103.48 49.1663 103.259 49.0703 103.072C48.9796 102.885 48.7903 102.717 48.5023 102.568C48.2143 102.419 47.7716 102.269 47.1743 102.12C46.5929 101.976 46.0863 101.811 45.6543 101.624C45.2276 101.432 44.8943 101.184 44.6543 100.88C44.4196 100.576 44.3023 100.181 44.3023 99.696C44.3023 99.2213 44.4356 98.8133 44.7023 98.472C44.9743 98.1253 45.3503 97.8613 45.8303 97.68C46.3103 97.4933 46.8676 97.4 47.5023 97.4C48.1796 97.4 48.7689 97.4907 49.2703 97.672C49.7769 97.848 50.2063 98.0667 50.5583 98.328L49.9663 99.24C49.6463 99.0213 49.2943 98.8427 48.9103 98.704C48.5263 98.56 48.0623 98.488 47.5183 98.488C46.8569 98.488 46.3876 98.592 46.1103 98.8C45.8329 99.0027 45.6943 99.2667 45.6943 99.592C45.6943 99.8373 45.7609 100.043 45.8943 100.208C46.0329 100.368 46.2649 100.515 46.5903 100.648C46.9156 100.776 47.3636 100.917 47.9343 101.072C48.4836 101.216 48.9609 101.389 49.3663 101.592C49.7769 101.795 50.0969 102.061 50.3263 102.392C50.5556 102.723 50.6703 103.149 50.6703 103.672C50.6703 104.269 50.4996 104.755 50.1583 105.128C49.8169 105.496 49.3743 105.765 48.8303 105.936C48.2916 106.101 47.7209 106.184 47.1183 106.184C46.3556 106.184 45.7049 106.075 45.1663 105.856C44.6329 105.632 44.1849 105.363 43.8223 105.048L44.5903 104.16C44.9209 104.432 45.2996 104.653 45.7263 104.824C46.1583 104.989 46.6223 105.072 47.1183 105.072ZM57.632 97.576V104.936H60.008V106H53.688V104.936H56.288V98.64H53.768V97.576H57.632ZM56.56 93.632C56.8587 93.632 57.096 93.7227 57.272 93.904C57.4533 94.0853 57.544 94.3067 57.544 94.568C57.544 94.84 57.4533 95.0693 57.272 95.256C57.096 95.4373 56.8587 95.528 56.56 95.528C56.2773 95.528 56.0453 95.4373 55.864 95.256C55.6827 95.0693 55.592 94.84 55.592 94.568C55.592 94.3067 55.6827 94.0853 55.864 93.904C56.0453 93.7227 56.2773 93.632 56.56 93.632ZM69.3298 96.68L69.7458 97.944C69.3884 98.056 69.0071 98.1253 68.6018 98.152C68.1964 98.1787 67.7564 98.192 67.2818 98.192C67.7671 98.416 68.1324 98.7067 68.3778 99.064C68.6231 99.416 68.7458 99.832 68.7458 100.312C68.7458 100.867 68.6204 101.36 68.3698 101.792C68.1191 102.224 67.7564 102.563 67.2818 102.808C66.8124 103.053 66.2444 103.176 65.5778 103.176C65.2951 103.176 65.0578 103.163 64.8658 103.136C64.6791 103.109 64.4978 103.069 64.3218 103.016C64.1938 103.101 64.0871 103.219 64.0018 103.368C63.9218 103.517 63.8818 103.672 63.8818 103.832C63.8818 104.035 63.9618 104.203 64.1218 104.336C64.2818 104.469 64.5778 104.536 65.0098 104.536H66.5298C67.0951 104.536 67.6018 104.637 68.0498 104.84C68.5031 105.043 68.8578 105.315 69.1138 105.656C69.3751 105.997 69.5058 106.387 69.5058 106.824C69.5058 107.651 69.1538 108.285 68.4498 108.728C67.7511 109.171 66.7618 109.392 65.4818 109.392C64.5858 109.392 63.8791 109.299 63.3618 109.112C62.8444 108.931 62.4738 108.651 62.2498 108.272C62.0311 107.899 61.9218 107.427 61.9218 106.856H63.1378C63.1378 107.181 63.2018 107.451 63.3298 107.664C63.4578 107.877 63.6898 108.035 64.0258 108.136C64.3618 108.243 64.8444 108.296 65.4738 108.296C66.0924 108.296 66.5964 108.243 66.9858 108.136C67.3804 108.035 67.6711 107.88 67.8578 107.672C68.0498 107.469 68.1458 107.216 68.1458 106.912C68.1458 106.512 67.9644 106.211 67.6018 106.008C67.2391 105.805 66.7858 105.704 66.2418 105.704H64.7378C64.0124 105.704 63.4764 105.544 63.1298 105.224C62.7884 104.904 62.6178 104.536 62.6178 104.12C62.6178 103.848 62.6951 103.584 62.8498 103.328C63.0098 103.072 63.2418 102.845 63.5458 102.648C63.0604 102.392 62.7031 102.075 62.4738 101.696C62.2444 101.317 62.1298 100.859 62.1298 100.32C62.1298 99.7493 62.2711 99.2453 62.5538 98.808C62.8364 98.3653 63.2311 98.0187 63.7378 97.768C64.2444 97.5173 64.8284 97.392 65.4898 97.392C66.1991 97.3867 66.7751 97.3573 67.2178 97.304C67.6604 97.2453 68.0391 97.1627 68.3538 97.056C68.6738 96.9493 68.9991 96.824 69.3298 96.68ZM65.4898 98.376C64.8124 98.376 64.3111 98.56 63.9858 98.928C63.6658 99.2907 63.5058 99.7547 63.5058 100.32C63.5058 100.891 63.6711 101.36 64.0018 101.728C64.3324 102.096 64.8391 102.28 65.5218 102.28C66.1191 102.28 66.5724 102.107 66.8818 101.76C67.1964 101.413 67.3538 100.931 67.3538 100.312C67.3538 99.6773 67.1964 99.1973 66.8818 98.872C66.5724 98.5413 66.1084 98.376 65.4898 98.376ZM71.5955 106V97.576H72.7395L72.8435 98.744C73.1848 98.312 73.6115 97.9813 74.1235 97.752C74.6408 97.5173 75.1422 97.4 75.6275 97.4C76.4542 97.4 77.0542 97.6187 77.4275 98.056C77.8062 98.4933 77.9955 99.1013 77.9955 99.88V106H76.6515V100.872C76.6515 100.296 76.6195 99.832 76.5555 99.48C76.4915 99.1227 76.3582 98.864 76.1555 98.704C75.9528 98.5387 75.6382 98.456 75.2115 98.456C74.8808 98.456 74.5688 98.528 74.2755 98.672C73.9875 98.816 73.7288 98.9973 73.4995 99.216C73.2755 99.4293 73.0888 99.6453 72.9395 99.864V106H71.5955Z" fill="white"/>
<defs>
<clipPath id="clip0_3001_2486">
<rect width="56" height="56" fill="white" transform="translate(24 4)"/>
</clipPath>
</defs>
</svg>
