<svg width="104" height="110" viewBox="0 0 104 110" fill="none" xmlns="http://www.w3.org/2000/svg">
<path d="M45.3571 55.2323C41.6425 54.1709 38.3757 52.2166 35.5235 49.4874C34.628 49.8075 33.7159 50.1276 32.7873 50.4308C32.3561 50.5656 31.925 50.515 31.4772 50.3466C30.6813 50.0433 30.2004 49.4537 29.8521 48.7292C29.3712 47.769 28.7577 46.8929 28.2768 45.9326C27.8456 45.0397 27.2154 44.2647 26.8506 43.3381C26.6682 42.8833 26.1873 42.58 26.1873 42.0072C25.7562 41.2996 26.1707 40.6763 26.4195 40.0529C26.4858 39.8845 26.5687 39.6655 26.718 39.5981C27.3149 39.3285 27.6134 38.722 28.1109 38.3514C28.3431 38.1829 28.5918 37.9976 28.8572 37.7954C28.4757 35.858 28.1441 33.9206 28.1441 31.9326C28.1441 29.9615 28.4923 28.0578 28.8572 26.1709C28.2104 25.5644 27.6134 24.9747 26.9833 24.4188C26.3366 23.846 25.9551 23.1384 26.0381 22.3971C26.0878 21.9928 26.2039 21.5548 26.4029 21.2178C27.0165 20.2238 27.5803 19.1793 28.1773 18.1685C28.6582 17.3598 29.0727 16.5174 29.6034 15.7256C29.8853 15.3213 30.0511 14.8496 30.333 14.4284C30.8803 13.6366 31.9747 13.2491 32.8702 13.5187C33.6662 13.7545 34.4124 14.1083 35.225 14.2599C35.3079 14.2768 35.3742 14.3947 35.4571 14.4789C38.326 11.7665 41.5928 9.82912 45.3405 8.70036C45.4898 8.24549 45.5229 7.75692 45.7053 7.2852C45.838 6.93141 45.8048 6.49338 45.8712 6.1059C46.0536 5.09507 46.6672 4.50542 47.546 4.20217C47.8611 4.10108 48.1762 4 48.5576 4C50.8792 4.03369 53.2008 4.03369 55.5224 4C56.1857 4 56.7495 4.26955 57.2802 4.5728C57.7611 4.82551 58.0264 5.36462 58.1591 5.87004C58.3912 6.79663 58.5239 7.74007 58.7063 8.71721C62.4375 9.79543 65.7043 11.7329 68.5565 14.4621C69.452 14.142 70.3641 13.8219 71.2927 13.5187C71.7239 13.3839 72.155 13.4344 72.6028 13.6029C73.3987 13.9061 73.8796 14.4958 74.2279 15.2202C74.7088 16.1805 75.3223 17.0566 75.8032 18.0168C76.2344 18.9097 76.8646 19.6847 77.2294 20.6113C77.4118 21.0662 77.8927 21.3694 77.8927 21.9422C78.3238 22.6498 77.9093 23.2732 77.6605 23.8965C77.5942 24.065 77.5113 24.284 77.362 24.3514C76.7651 24.6209 76.4666 25.2274 75.9691 25.5981C75.7369 25.7665 75.4882 25.9519 75.2228 26.154C75.6043 28.0915 75.9359 30.0289 75.9359 32.0168C75.9359 33.988 75.6374 35.8917 75.2228 37.7786C75.8696 38.3851 76.4666 38.9747 77.0967 39.5307C77.7434 40.1035 78.1248 40.8111 78.0419 41.5523C77.9922 41.9567 77.8927 42.3947 77.6771 42.7316C77.0801 43.7088 76.5163 44.7196 75.9359 45.7136C75.2063 46.9434 74.6093 48.2744 73.7636 49.4368C73.6143 50.077 73.0173 50.1276 72.5862 50.3634C72.1219 50.6161 71.6575 50.5487 71.1435 50.3971C70.3806 50.1781 69.651 49.7906 68.855 49.6895C68.7721 49.6727 68.7058 49.5548 68.6229 49.4705C65.754 52.2166 62.5038 54.1709 58.7063 55.2659C58.5239 56.1757 58.3581 57.1191 58.1591 58.0457C57.9601 58.9555 57.3631 59.5283 56.5174 59.7978C56.2023 59.8989 55.8706 60 55.5058 60C53.1842 59.9663 50.8626 59.9663 48.541 60C47.8777 60 47.3139 59.7304 46.7832 59.4272C46.3023 59.1745 46.0204 58.6354 45.9209 58.13C45.7385 57.136 45.5561 56.2094 45.3571 55.2323ZM46.435 40.3899C46.7666 40.2046 47.1481 40.0866 47.1646 39.6823C47.1978 39.0758 47.2807 38.4525 47.1481 37.8797C46.9159 36.9025 46.5013 35.9591 46.2526 34.9819C46.0868 34.3586 45.7219 33.769 45.7385 33.0951C45.2079 31.7641 44.8762 30.3658 44.4285 29.0181C44.0636 27.9061 43.7983 26.7605 43.4003 25.6655C43.1847 25.059 43.135 24.3851 42.737 23.846C42.7038 23.7954 42.6873 23.7617 42.6873 23.7617C42.2395 23.4585 41.7752 23.5596 41.3772 23.5596C41.1451 23.7786 40.9461 23.9639 40.7636 24.1324C40.7471 24.6715 40.3657 25.0927 40.432 25.6149C39.8516 26.929 39.6028 28.3442 39.1219 29.6919C38.8732 30.3827 38.724 31.0903 38.525 31.7978C38.3426 32.5054 37.9446 33.1456 37.9446 33.9037C37.3144 35.3357 36.9993 36.8688 36.535 38.3682C36.4189 38.7389 36.3526 39.0927 36.5848 39.4464C36.6511 39.5475 36.6179 39.6992 36.6179 39.6823C36.8833 39.9687 37.0823 40.1709 37.2481 40.373C37.5632 40.373 37.8948 40.373 38.2431 40.373C38.4752 40.0698 38.7074 39.7834 38.923 39.497C38.8732 38.5367 39.0722 37.8965 39.5034 36.8688C41.1285 36.8688 42.7536 36.8688 44.3787 36.8688C44.5114 37.4079 44.5777 37.9302 44.7601 38.4188C44.843 38.6209 44.9259 38.8231 44.8928 39.0253C44.843 39.6486 45.042 40.1372 45.7385 40.373C45.9043 40.3899 46.1531 40.3899 46.435 40.3899ZM50.3154 40.3899C50.7631 40.3562 51.2772 40.491 51.642 40.1203C51.7747 39.9519 51.8908 39.7834 52.0566 39.5475C52.0566 37.8628 52.0566 36.0939 52.0566 34.3249C53.2671 34.3249 54.4611 34.2744 55.6385 34.3418C56.3515 34.3755 56.9319 34.1564 57.4958 33.8026C57.7611 33.6342 57.9932 33.3815 58.2254 33.1456C58.839 32.5391 59.1375 31.7978 59.154 30.9218C59.154 29.5403 59.154 28.1757 59.154 26.7942C59.154 26.5921 59.1043 26.373 59.0546 26.1709C58.8721 25.4464 58.4907 24.9073 57.9767 24.4356C57.3797 23.8797 56.6832 23.5427 55.8541 23.5427C53.9968 23.5427 52.1561 23.5427 50.2822 23.5427C50.0998 23.7449 49.9174 23.9471 49.7018 24.1492C49.7018 29.3381 49.7018 34.5608 49.7018 39.8002C49.9174 39.9856 50.1164 40.1877 50.3154 40.3899ZM62.255 40.3899C63.3993 40.3899 64.5601 40.3899 65.7043 40.3899C65.9033 40.1877 66.1023 39.9856 66.3013 39.8002C66.3013 39.4801 66.3013 39.1769 66.3013 38.8568C66.3013 38.8231 66.3013 38.8063 66.3013 38.7894C66.0525 38.3177 65.6711 38.0313 65.1736 37.9807C65.1736 33.9543 65.1736 29.9446 65.1736 26.0193C65.5385 25.8339 65.8535 25.6655 66.2184 25.4633C66.2681 25.0253 66.3013 24.5704 66.3344 24.2503C66.0691 23.9471 65.8867 23.728 65.7374 23.5596C64.5435 23.5596 63.3827 23.5596 62.3545 23.5596C62.0726 23.8123 61.8736 23.9976 61.6249 24.2335C61.6746 24.6378 61.741 25.0927 61.7907 25.4801C62.1887 25.6823 62.5038 25.8508 62.7857 26.0024C62.7857 30.012 62.7857 34.0217 62.7857 37.9976C62.6199 38.0313 62.4375 37.9976 62.3711 38.0818C62.139 38.3177 61.741 38.3851 61.6581 38.7726C61.6581 39.1095 61.6581 39.4464 61.6581 39.7834C61.8571 39.9856 62.056 40.1877 62.255 40.3899Z" fill="white"/>
<path d="M43.5086 34.2921C42.5302 34.3258 41.5021 34.3426 40.4739 34.3763C40.4408 34.3763 40.391 34.4437 40.2915 34.528C40.3081 33.4834 40.8885 32.6411 40.9548 31.6808C41.4523 30.8384 41.5021 29.8444 41.8337 28.901C41.9332 29.0021 42.0825 29.1032 42.0825 29.1874C42.099 29.9118 42.5136 30.5352 42.6463 31.2259C42.7458 31.6976 43.0111 32.1525 43.0774 32.6242C43.1438 33.2307 43.5417 33.6856 43.5086 34.2921Z" fill="white"/>
<path d="M56.8511 31.0222C56.735 31.2075 56.6355 31.3929 56.5028 31.5613C56.2707 31.8309 55.9722 31.9825 55.5908 31.9657C54.43 31.9488 53.2692 31.9657 52.0752 31.9657C52.0752 29.9608 52.0752 27.956 52.0752 25.9007C53.2857 25.9007 54.5295 25.8838 55.7566 25.9007C56.337 25.9175 56.8345 26.524 56.8511 27.1642C56.8511 28.2256 56.8511 29.287 56.8511 30.3483C56.8511 30.5842 56.8511 30.8032 56.8511 31.0222Z" fill="white"/>
<path d="M22.225 79.072C22.225 79.6213 22.105 80.1013 21.865 80.512C21.6303 80.9227 21.3103 81.2613 20.905 81.528C20.4997 81.7947 20.0437 81.9893 19.537 82.112L22.801 87H21.137L18.129 82.272H16.641V87H15.249V75.984H18.081C19.441 75.984 20.4703 76.2453 21.169 76.768C21.873 77.2853 22.225 78.0533 22.225 79.072ZM20.737 79.072C20.737 78.3627 20.5343 77.856 20.129 77.552C19.7237 77.2427 19.0943 77.088 18.241 77.088H16.641V81.184H18.241C19.0303 81.184 19.6437 81.024 20.081 80.704C20.5183 80.3787 20.737 79.8347 20.737 79.072ZM26.6188 77.12V80.832H30.6988V81.976H26.6188V85.888H31.6267V87H25.2268V75.984H31.4827L31.3228 77.12H26.6188ZM41.3965 83.952C41.3965 84.5813 41.2392 85.1413 40.9245 85.632C40.6098 86.1173 40.1538 86.4987 39.5565 86.776C38.9592 87.048 38.2312 87.184 37.3725 87.184C36.5672 87.184 35.8365 87.0613 35.1805 86.816C34.5298 86.5707 33.9725 86.224 33.5085 85.776L34.3325 84.848C34.7165 85.2053 35.1565 85.4907 35.6525 85.704C36.1485 85.912 36.7298 86.016 37.3965 86.016C37.8445 86.016 38.2632 85.944 38.6525 85.8C39.0418 85.6507 39.3565 85.4267 39.5965 85.128C39.8365 84.824 39.9565 84.44 39.9565 83.976C39.9565 83.6187 39.8872 83.3147 39.7485 83.064C39.6098 82.8133 39.3645 82.592 39.0125 82.4C38.6605 82.2027 38.1698 82.0107 37.5405 81.824C36.8152 81.6107 36.1858 81.3707 35.6525 81.104C35.1245 80.832 34.7138 80.4987 34.4205 80.104C34.1325 79.7093 33.9885 79.2213 33.9885 78.64C33.9885 78.0907 34.1405 77.6027 34.4445 77.176C34.7485 76.7493 35.1672 76.416 35.7005 76.176C36.2392 75.9307 36.8578 75.808 37.5565 75.808C38.3192 75.808 38.9805 75.9173 39.5405 76.136C40.1058 76.3493 40.6178 76.6587 41.0765 77.064L40.2605 77.968C39.8658 77.616 39.4418 77.3627 38.9885 77.208C38.5352 77.048 38.0738 76.968 37.6045 76.968C37.2045 76.968 36.8365 77.0293 36.5005 77.152C36.1698 77.2693 35.9032 77.448 35.7005 77.688C35.5032 77.9227 35.4045 78.224 35.4045 78.592C35.4045 78.9067 35.4898 79.1787 35.6605 79.408C35.8312 79.6373 36.1192 79.848 36.5245 80.04C36.9298 80.2267 37.4818 80.424 38.1805 80.632C38.7512 80.7973 39.2792 81.0053 39.7645 81.256C40.2552 81.5013 40.6498 81.8373 40.9485 82.264C41.2472 82.6853 41.3965 83.248 41.3965 83.952ZM47.8703 77.176V87H46.4863V77.176H43.0463V75.984H51.3583L51.2143 77.176H47.8703ZM53.592 82.576V81.408H60.008V82.576H53.592ZM68.5298 84.192H64.1698L63.2898 87H61.9218L65.5058 75.984H67.2818L70.8658 87H69.4098L68.5298 84.192ZM64.5298 83.04H68.1698L66.3618 77.152L64.5298 83.04ZM78.6115 79.384C78.6115 78.8133 78.4995 78.3627 78.2755 78.032C78.0515 77.696 77.7448 77.456 77.3555 77.312C76.9662 77.1627 76.5208 77.088 76.0195 77.088H74.4275V81.792H75.9635C76.4808 81.792 76.9368 81.7227 77.3315 81.584C77.7262 81.44 78.0382 81.1947 78.2675 80.848C78.4968 80.496 78.6115 80.008 78.6115 79.384ZM80.0995 79.368C80.0995 80.2267 79.9155 80.9147 79.5475 81.432C79.1848 81.9493 78.6835 82.3253 78.0435 82.56C77.4035 82.7947 76.6675 82.912 75.8355 82.912H74.4275V87H73.0355V75.984H75.8515C77.1635 75.984 78.1982 76.2613 78.9555 76.816C79.7182 77.3653 80.0995 78.216 80.0995 79.368ZM88.7333 75.984V77.096H86.2853V85.888H88.7333V87H82.4293V85.888H84.8773V77.096H82.4293V75.984H88.7333Z" fill="white"/>
</svg>
