<svg width="104" height="110" viewBox="0 0 104 110" fill="none" xmlns="http://www.w3.org/2000/svg">
<path fill-rule="evenodd" clip-rule="evenodd" d="M78.7991 19.769L73.8363 26.7081L68.8735 19.769H71.5794C71.3731 14.6132 67.1141 10.4886 61.9086 10.4886C57.5161 10.4886 53.791 13.4365 52.614 17.452C51.1822 16.991 49.7019 16.6998 48.1973 16.5664C48.3671 15.9234 48.5856 15.2804 48.8525 14.6618C49.5684 12.9755 50.5877 11.4591 51.886 10.161C53.1843 8.86299 54.7011 7.83183 56.3877 7.12821C58.135 6.37607 59.9915 6 61.9086 6C63.8258 6 65.6823 6.37607 67.4296 7.11608C69.1162 7.83183 70.6329 8.85086 71.9312 10.1489C73.2296 11.447 74.2488 12.9634 74.9647 14.6496C75.6564 16.2752 76.0325 17.9979 76.0689 19.769H78.7991Z" fill="white"/>
<path fill-rule="evenodd" clip-rule="evenodd" d="M71.8681 58.4091V55.4248H54.7593C54.8806 55.3642 55.002 55.3157 55.1233 55.255C56.9798 54.3694 58.6907 53.2169 60.2195 51.8097C60.4258 51.6156 60.62 51.4336 60.802 51.2517C61.0083 51.0454 61.2267 50.8271 61.4329 50.5966C61.6756 50.3297 61.9183 50.0507 62.1367 49.7717H71.8681V46.7874L79.9979 52.5982L71.8681 58.4091Z" fill="white"/>
<path fill-rule="evenodd" clip-rule="evenodd" d="M65.5587 36.8508C65.5587 39.4347 65.0491 41.9459 64.0541 44.3115C63.2047 46.3253 62.0156 48.1693 60.5353 49.7827C60.3411 49.989 60.147 50.1952 59.9528 50.4014C59.7708 50.5834 59.5888 50.7532 59.4068 50.9352C57.975 52.2575 56.3733 53.3372 54.626 54.1743C54.3834 54.2956 54.1286 54.4048 53.8737 54.514C53.8616 54.514 53.8616 54.5261 53.8495 54.5261C52.3934 55.1448 50.8281 55.4481 49.2386 55.4481H24V49.807H47.4306C54.5168 49.807 60.329 44.1417 60.4261 37.057C60.4261 36.9963 60.4261 36.9357 60.4261 36.875C60.4261 29.1353 54.1407 22.8512 46.3992 22.8512C38.6578 22.827 32.3724 29.0989 32.3724 36.8508H35.6243L29.8122 44.9787L24 36.8508H27.2519C27.2519 34.2668 27.7615 31.7556 28.7565 29.39C29.7272 27.1093 31.0984 25.0591 32.8578 23.3001C34.6172 21.5411 36.6678 20.1581 38.949 19.1997C41.3151 18.2049 43.8268 17.6954 46.4114 17.6954C46.9331 17.6954 47.4428 17.7197 47.9524 17.7561C49.457 17.8774 50.9252 18.1686 52.357 18.6417C52.8666 18.8115 53.3641 18.9935 53.8616 19.2118C56.1428 20.1824 58.1934 21.5532 59.9528 23.3122C61.7123 25.0713 63.0955 27.1215 64.0541 29.4021C65.0491 31.7556 65.5587 34.2668 65.5587 36.8508Z" fill="white"/>
<path d="M36.5996 83.952C36.5996 84.5813 36.4423 85.1413 36.1276 85.632C35.813 86.1173 35.357 86.4987 34.7596 86.776C34.1623 87.048 33.4343 87.184 32.5756 87.184C31.7703 87.184 31.0396 87.0613 30.3836 86.816C29.733 86.5707 29.1756 86.224 28.7116 85.776L29.5356 84.848C29.9196 85.2053 30.3596 85.4907 30.8556 85.704C31.3516 85.912 31.933 86.016 32.5996 86.016C33.0476 86.016 33.4663 85.944 33.8556 85.8C34.245 85.6507 34.5596 85.4267 34.7996 85.128C35.0396 84.824 35.1596 84.44 35.1596 83.976C35.1596 83.6187 35.0903 83.3147 34.9516 83.064C34.813 82.8133 34.5676 82.592 34.2156 82.4C33.8636 82.2027 33.373 82.0107 32.7436 81.824C32.0183 81.6107 31.389 81.3707 30.8556 81.104C30.3276 80.832 29.917 80.4987 29.6236 80.104C29.3356 79.7093 29.1916 79.2213 29.1916 78.64C29.1916 78.0907 29.3436 77.6027 29.6476 77.176C29.9516 76.7493 30.3703 76.416 30.9036 76.176C31.4423 75.9307 32.061 75.808 32.7596 75.808C33.5223 75.808 34.1836 75.9173 34.7436 76.136C35.309 76.3493 35.821 76.6587 36.2796 77.064L35.4636 77.968C35.069 77.616 34.645 77.3627 34.1916 77.208C33.7383 77.048 33.277 76.968 32.8076 76.968C32.4076 76.968 32.0396 77.0293 31.7036 77.152C31.373 77.2693 31.1063 77.448 30.9036 77.688C30.7063 77.9227 30.6076 78.224 30.6076 78.592C30.6076 78.9067 30.693 79.1787 30.8636 79.408C31.0343 79.6373 31.3223 79.848 31.7276 80.04C32.133 80.2267 32.685 80.424 33.3836 80.632C33.9543 80.7973 34.4823 81.0053 34.9676 81.256C35.4583 81.5013 35.853 81.8373 36.1516 82.264C36.4503 82.6853 36.5996 83.248 36.5996 83.952ZM43.0254 86.024C43.4467 86.024 43.8387 85.9547 44.2014 85.816C44.5694 85.6773 44.908 85.5013 45.2174 85.288L45.8734 86.168C45.5054 86.4827 45.0627 86.7307 44.5454 86.912C44.028 87.0933 43.5214 87.184 43.0254 87.184C42.188 87.184 41.4734 87.0053 40.8814 86.648C40.2947 86.2853 39.8467 85.7787 39.5374 85.128C39.228 84.472 39.0734 83.704 39.0734 82.824C39.0734 81.9813 39.228 81.2267 39.5374 80.56C39.852 79.888 40.3027 79.36 40.8894 78.976C41.4814 78.592 42.1987 78.4 43.0414 78.4C43.58 78.4 44.084 78.4827 44.5534 78.648C45.028 78.808 45.4627 79.0507 45.8574 79.376L45.2014 80.272C44.844 80.0213 44.484 79.8347 44.1214 79.712C43.764 79.584 43.3987 79.52 43.0254 79.52C42.3 79.52 41.7027 79.792 41.2334 80.336C40.764 80.88 40.5294 81.7093 40.5294 82.824C40.5294 83.5707 40.636 84.1813 40.8494 84.656C41.068 85.1253 41.364 85.472 41.7374 85.696C42.116 85.9147 42.5454 86.024 43.0254 86.024ZM48.8911 87V85.968H50.2031V79.608H48.8911V78.576H51.2271L51.4751 80.568C51.8005 79.8747 52.1951 79.3387 52.6591 78.96C53.1231 78.5813 53.7365 78.392 54.4991 78.392C54.7338 78.392 54.9418 78.4107 55.1231 78.448C55.3098 78.48 55.4991 78.5227 55.6911 78.576L55.2991 79.776C55.1231 79.728 54.9631 79.6933 54.8191 79.672C54.6751 79.6453 54.5098 79.632 54.3231 79.632C53.6778 79.632 53.1231 79.8613 52.6591 80.32C52.1951 80.7787 51.8245 81.472 51.5471 82.4V85.968H53.2591V87H48.8911ZM54.3951 81.424V79.592L54.5311 78.576H55.6911L55.4991 81.424H54.3951ZM59.7489 78.576V84.544C59.7489 85.0987 59.8635 85.4987 60.0929 85.744C60.3222 85.9893 60.6795 86.112 61.1649 86.112C61.6289 86.112 62.0662 85.9813 62.4769 85.72C62.8929 85.4533 63.2155 85.1387 63.4449 84.776V78.576H64.7889V87H63.6449L63.5329 85.864C63.2022 86.2907 62.7942 86.6187 62.3089 86.848C61.8235 87.072 61.3329 87.184 60.8369 87.184C60.0209 87.184 59.4102 86.968 59.0049 86.536C58.6049 86.0987 58.4049 85.488 58.4049 84.704V78.576H59.7489ZM73.5506 78.4C73.8226 78.4 74.0813 78.4587 74.3266 78.576C74.5773 78.6933 74.7826 78.92 74.9426 79.256C75.1026 79.592 75.1826 80.0827 75.1826 80.728V87H73.9346V80.944C73.9346 80.416 73.9026 80.0347 73.8386 79.8C73.7746 79.5653 73.5906 79.448 73.2866 79.448C73.036 79.448 72.7853 79.528 72.5346 79.688C72.2893 79.8427 72.0493 80.0987 71.8146 80.456V87H70.5586V80.944C70.5586 80.416 70.5266 80.0347 70.4626 79.8C70.3986 79.5653 70.2146 79.448 69.9106 79.448C69.6493 79.448 69.396 79.528 69.1506 79.688C68.9106 79.8427 68.6733 80.0987 68.4386 80.456V87H67.1986V78.576H68.2546L68.3346 79.552C68.564 79.2267 68.82 78.9547 69.1026 78.736C69.3906 78.512 69.7453 78.4 70.1666 78.4C70.4866 78.4 70.788 78.4773 71.0706 78.632C71.3533 78.7813 71.5613 79.0747 71.6946 79.512C71.924 79.1813 72.1826 78.9147 72.4706 78.712C72.7586 78.504 73.1186 78.4 73.5506 78.4Z" fill="white"/>
</svg>
