<svg width="104" height="110" viewBox="0 0 104 110" fill="none" xmlns="http://www.w3.org/2000/svg">
<path d="M79.8981 8.45657C79.4907 6.31742 77.8354 4.58572 75.7217 4.12733C75.6198 4.10186 75.518 4.10186 75.3906 4.0764C75.3652 4.0764 75.3397 4.02547 75.3142 4H28.6094C28.5839 4.02547 28.5584 4.0764 28.5075 4.0764C26.3938 4.43292 24.6112 6.11369 24.1273 8.25284C24.1019 8.32924 24.0509 8.4311 24 8.53297V55.3652C24.0255 55.4161 24.0764 55.4416 24.0764 55.4925C24.5857 57.8354 26.0118 59.2869 28.3292 59.8727C28.4056 59.8981 28.4566 59.9491 28.5075 60H75.3906C75.4416 59.9745 75.467 59.9236 75.518 59.8981C77.8354 59.3633 79.2615 57.9627 79.8472 55.6453C79.8727 55.5689 79.8472 55.467 79.8727 55.3906C79.8727 55.3652 79.9236 55.3397 79.9491 55.3142V8.60937C79.9491 8.55844 79.8981 8.53297 79.8981 8.45657ZM56.4693 35.0432H56.1892C54.0755 35.0432 51.9363 35.0432 49.8226 35.0432C49.7208 35.0432 49.6189 35.0432 49.5171 35.0432C49.5171 35.0687 49.4916 35.0687 49.4916 35.0941C49.4916 35.196 49.4916 35.2979 49.4916 35.3997V55.0341H43.9145V35.0687H36.9113V30.6121H56.4438V35.0432H56.4693ZM75.2633 48.362C75.2124 49.2278 75.085 50.0682 74.7285 50.8831C74.6267 51.1378 74.5503 51.367 74.4229 51.6216C73.9645 52.5894 73.2006 53.2769 72.3092 53.8372C71.2906 54.4739 70.1701 54.8304 68.9986 55.0596C67.6999 55.3142 66.4011 55.3906 65.0769 55.3397C64.4402 55.3142 63.8036 55.3142 63.1669 55.2378C61.6644 55.0596 60.1874 54.7285 58.8122 54.0664C58.7358 54.0409 58.6339 53.9136 58.6339 53.8372C58.6339 52.1819 58.6339 50.5266 58.6339 48.8713C58.6339 48.8458 58.6339 48.8204 58.6339 48.7694C59.0414 49.0496 59.4488 49.3297 59.8563 49.5589C60.8495 50.1446 61.9445 50.5521 63.065 50.8067C64.0327 51.0359 65.0005 51.0614 65.9682 51.0105C66.7067 50.985 67.4452 50.8067 68.1073 50.4757C68.693 50.1701 69.1769 49.7626 69.3042 49.075C69.4316 48.4638 69.3806 47.8527 69.0241 47.3179C68.5148 46.5539 67.8017 46.07 67.0123 45.6626C66.121 45.2296 65.2297 44.8477 64.3129 44.4402C62.9632 43.829 61.6389 43.1669 60.5439 42.1483C59.6526 41.3079 58.9905 40.3147 58.6849 39.1178C58.5066 38.4047 58.4557 37.6917 58.4811 36.9786C58.5066 35.2215 59.1432 33.719 60.3911 32.4711C61.4097 31.4525 62.6576 30.8413 64.0327 30.4848C64.975 30.2556 65.9172 30.0773 66.8849 30.0518C67.5725 30.0518 68.2601 29.9754 68.9222 30.0009C69.9664 30.0264 70.985 30.0773 72.0036 30.332C72.6658 30.5102 73.3533 30.6885 74.0155 30.8413C74.1428 30.8668 74.1937 30.9432 74.1937 31.096C74.1937 32.6749 74.1937 34.2792 74.1937 35.8581C74.1937 35.909 74.1937 35.96 74.1683 36.0364C73.9645 35.909 73.7863 35.8072 73.608 35.7053C72.7931 35.2469 71.9272 34.9413 71.0359 34.7121C70.0428 34.4829 69.0496 34.3301 68.0309 34.3556C67.3433 34.3811 66.6303 34.4829 65.9936 34.7121C65.2042 34.9923 64.5675 35.4507 64.2874 36.291C64.0582 36.9532 64.2365 37.5134 64.6439 38.0482C65.1533 38.7103 65.8408 39.1687 66.5794 39.5252C67.5725 40.0091 68.5912 40.4166 69.5589 40.8749C70.6794 41.4097 71.7999 41.9445 72.7422 42.734C73.5571 43.4216 74.2956 44.1855 74.7031 45.2042C74.9322 45.8154 75.136 46.452 75.136 47.1396C75.2378 47.5471 75.2888 47.9545 75.2633 48.362Z" fill="white"/>
<path d="M9.49525 77.176V87H8.11125V77.176H4.67125V75.984H12.9833L12.8393 77.176H9.49525ZM22.241 78.576L19.281 87.056C19.0837 87.6267 18.833 88.1493 18.529 88.624C18.2303 89.0987 17.8383 89.4907 17.353 89.8C16.873 90.1147 16.2623 90.3093 15.521 90.384L15.313 89.312C15.8943 89.216 16.353 89.0693 16.689 88.872C17.025 88.6747 17.289 88.4213 17.481 88.112C17.6783 87.8027 17.8517 87.432 18.001 87H17.553L14.609 78.576H16.049L18.465 85.976L20.849 78.576H22.241ZM28.5948 78.4C29.3414 78.4 29.9361 78.5813 30.3788 78.944C30.8268 79.3067 31.1494 79.8187 31.3468 80.48C31.5441 81.136 31.6428 81.904 31.6428 82.784C31.6428 83.632 31.5228 84.3893 31.2828 85.056C31.0481 85.7173 30.6908 86.2373 30.2108 86.616C29.7308 86.9947 29.1254 87.184 28.3948 87.184C27.4721 87.184 26.7308 86.8587 26.1708 86.208V90.224L24.8268 90.392V78.576H25.9708L26.0828 79.752C26.3921 79.32 26.7601 78.9867 27.1868 78.752C27.6188 78.5173 28.0881 78.4 28.5948 78.4ZM28.2748 79.48C27.8108 79.48 27.4001 79.6213 27.0428 79.904C26.6908 80.1813 26.4001 80.4907 26.1708 80.832V85.008C26.3894 85.3333 26.6641 85.592 26.9948 85.784C27.3308 85.9707 27.6988 86.064 28.0988 86.064C28.7974 86.064 29.3228 85.7973 29.6748 85.264C30.0268 84.7307 30.2028 83.9013 30.2028 82.776C30.2028 82.04 30.1334 81.4293 29.9948 80.944C29.8561 80.4533 29.6454 80.088 29.3628 79.848C29.0801 79.6027 28.7174 79.48 28.2748 79.48ZM35.4765 83.264C35.5032 83.9147 35.6285 84.448 35.8525 84.864C36.0765 85.2747 36.3725 85.5787 36.7405 85.776C37.1085 85.968 37.5085 86.064 37.9405 86.064C38.3725 86.064 38.7618 86 39.1085 85.872C39.4605 85.744 39.8205 85.5547 40.1885 85.304L40.8205 86.192C40.4258 86.5013 39.9752 86.744 39.4685 86.92C38.9672 87.096 38.4525 87.184 37.9245 87.184C37.1085 87.184 36.4125 87 35.8365 86.632C35.2605 86.264 34.8205 85.752 34.5165 85.096C34.2178 84.4347 34.0685 83.6693 34.0685 82.8C34.0685 81.9467 34.2205 81.1893 34.5245 80.528C34.8285 79.8667 35.2552 79.3467 35.8045 78.968C36.3538 78.5893 37.0018 78.4 37.7485 78.4C38.4578 78.4 39.0685 78.568 39.5805 78.904C40.0925 79.2347 40.4845 79.7093 40.7565 80.328C41.0338 80.9413 41.1725 81.6747 41.1725 82.528C41.1725 82.672 41.1698 82.808 41.1645 82.936C41.1592 83.0587 41.1512 83.168 41.1405 83.264H35.4765ZM37.7645 79.504C37.1405 79.504 36.6178 79.7253 36.1965 80.168C35.7805 80.6107 35.5432 81.296 35.4845 82.224H39.8765C39.8605 81.3227 39.6632 80.6453 39.2845 80.192C38.9058 79.7333 38.3992 79.504 37.7645 79.504ZM50.9903 83.952C50.9903 84.5813 50.8329 85.1413 50.5183 85.632C50.2036 86.1173 49.7476 86.4987 49.1503 86.776C48.5529 87.048 47.8249 87.184 46.9663 87.184C46.1609 87.184 45.4303 87.0613 44.7743 86.816C44.1236 86.5707 43.5663 86.224 43.1023 85.776L43.9263 84.848C44.3103 85.2053 44.7503 85.4907 45.2463 85.704C45.7423 85.912 46.3236 86.016 46.9903 86.016C47.4383 86.016 47.8569 85.944 48.2463 85.8C48.6356 85.6507 48.9503 85.4267 49.1903 85.128C49.4303 84.824 49.5503 84.44 49.5503 83.976C49.5503 83.6187 49.4809 83.3147 49.3423 83.064C49.2036 82.8133 48.9583 82.592 48.6063 82.4C48.2543 82.2027 47.7636 82.0107 47.1343 81.824C46.4089 81.6107 45.7796 81.3707 45.2463 81.104C44.7183 80.832 44.3076 80.4987 44.0143 80.104C43.7263 79.7093 43.5822 79.2213 43.5822 78.64C43.5822 78.0907 43.7343 77.6027 44.0383 77.176C44.3423 76.7493 44.7609 76.416 45.2943 76.176C45.8329 75.9307 46.4516 75.808 47.1503 75.808C47.9129 75.808 48.5743 75.9173 49.1343 76.136C49.6996 76.3493 50.2116 76.6587 50.6702 77.064L49.8543 77.968C49.4596 77.616 49.0356 77.3627 48.5823 77.208C48.1289 77.048 47.6676 76.968 47.1983 76.968C46.7983 76.968 46.4303 77.0293 46.0943 77.152C45.7636 77.2693 45.4969 77.448 45.2943 77.688C45.0969 77.9227 44.9983 78.224 44.9983 78.592C44.9983 78.9067 45.0836 79.1787 45.2543 79.408C45.4249 79.6373 45.7129 79.848 46.1183 80.04C46.5236 80.2267 47.0756 80.424 47.7743 80.632C48.3449 80.7973 48.8729 81.0053 49.3583 81.256C49.8489 81.5013 50.2436 81.8373 50.5423 82.264C50.8409 82.6853 50.9903 83.248 50.9903 83.952ZM57.416 86.024C57.8373 86.024 58.2293 85.9547 58.592 85.816C58.96 85.6773 59.2987 85.5013 59.608 85.288L60.264 86.168C59.896 86.4827 59.4533 86.7307 58.936 86.912C58.4187 87.0933 57.912 87.184 57.416 87.184C56.5787 87.184 55.864 87.0053 55.272 86.648C54.6853 86.2853 54.2373 85.7787 53.928 85.128C53.6187 84.472 53.464 83.704 53.464 82.824C53.464 81.9813 53.6187 81.2267 53.928 80.56C54.2427 79.888 54.6933 79.36 55.28 78.976C55.872 78.592 56.5893 78.4 57.432 78.4C57.9707 78.4 58.4747 78.4827 58.944 78.648C59.4187 78.808 59.8533 79.0507 60.248 79.376L59.592 80.272C59.2347 80.0213 58.8747 79.8347 58.512 79.712C58.1547 79.584 57.7893 79.52 57.416 79.52C56.6907 79.52 56.0933 79.792 55.624 80.336C55.1547 80.88 54.92 81.7093 54.92 82.824C54.92 83.5707 55.0267 84.1813 55.24 84.656C55.4587 85.1253 55.7547 85.472 56.128 85.696C56.5067 85.9147 56.936 86.024 57.416 86.024ZM63.2818 87V85.968H64.5938V79.608H63.2818V78.576H65.6178L65.8658 80.568C66.1911 79.8747 66.5858 79.3387 67.0498 78.96C67.5138 78.5813 68.1271 78.392 68.8898 78.392C69.1244 78.392 69.3324 78.4107 69.5138 78.448C69.7004 78.48 69.8898 78.5227 70.0818 78.576L69.6898 79.776C69.5138 79.728 69.3538 79.6933 69.2098 79.672C69.0658 79.6453 68.9004 79.632 68.7138 79.632C68.0684 79.632 67.5138 79.8613 67.0498 80.32C66.5858 80.7787 66.2151 81.472 65.9378 82.4V85.968H67.6498V87H63.2818ZM68.7858 81.424V79.592L68.9218 78.576H70.0818L69.8898 81.424H68.7858ZM77.0595 78.576V85.936H79.4355V87H73.1155V85.936H75.7155V79.64H73.1955V78.576H77.0595ZM75.9875 74.632C76.2862 74.632 76.5235 74.7227 76.6995 74.904C76.8808 75.0853 76.9715 75.3067 76.9715 75.568C76.9715 75.84 76.8808 76.0693 76.6995 76.256C76.5235 76.4373 76.2862 76.528 75.9875 76.528C75.7048 76.528 75.4728 76.4373 75.2915 76.256C75.1102 76.0693 75.0195 75.84 75.0195 75.568C75.0195 75.3067 75.1102 75.0853 75.2915 74.904C75.4728 74.7227 75.7048 74.632 75.9875 74.632ZM86.1573 78.4C86.9039 78.4 87.4986 78.5813 87.9413 78.944C88.3893 79.3067 88.7119 79.8187 88.9093 80.48C89.1066 81.136 89.2053 81.904 89.2053 82.784C89.2053 83.632 89.0853 84.3893 88.8453 85.056C88.6106 85.7173 88.2533 86.2373 87.7733 86.616C87.2933 86.9947 86.6879 87.184 85.9573 87.184C85.0346 87.184 84.2933 86.8587 83.7333 86.208V90.224L82.3893 90.392V78.576H83.5333L83.6453 79.752C83.9546 79.32 84.3226 78.9867 84.7493 78.752C85.1813 78.5173 85.6506 78.4 86.1573 78.4ZM85.8373 79.48C85.3733 79.48 84.9626 79.6213 84.6053 79.904C84.2533 80.1813 83.9626 80.4907 83.7333 80.832V85.008C83.9519 85.3333 84.2266 85.592 84.5573 85.784C84.8933 85.9707 85.2613 86.064 85.6613 86.064C86.3599 86.064 86.8853 85.7973 87.2373 85.264C87.5893 84.7307 87.7653 83.9013 87.7653 82.776C87.7653 82.04 87.6959 81.4293 87.5573 80.944C87.4186 80.4533 87.2079 80.088 86.9253 79.848C86.6426 79.6027 86.2799 79.48 85.8373 79.48ZM98.671 86.576C98.383 86.768 98.0337 86.9173 97.623 87.024C97.2123 87.1307 96.8097 87.184 96.415 87.184C95.5083 87.184 94.8097 86.9467 94.319 86.472C93.8283 85.9973 93.583 85.3867 93.583 84.64V79.616H91.647V78.576H93.583V76.664L94.927 76.504V78.576H97.839L97.679 79.616H94.927V84.624C94.927 85.0933 95.0497 85.4507 95.295 85.696C95.5457 85.9413 95.959 86.064 96.535 86.064C96.8497 86.064 97.1403 86.0267 97.407 85.952C97.6737 85.8773 97.9217 85.7813 98.151 85.664L98.671 86.576Z" fill="white"/>
</svg>
